<svg width="40" height="40" viewBox="0 0 120 120" fill="none" xmlns="http://www.w3.org/2000/svg">
<g clip-path="url(#clip0_363_100)">
<path d="M0.079958 53.9799C2.04996 42.7299 5.42996 32.0299 12.91 23.0999C29.25 3.59989 50.03 -4.17011 74.75 2.15989C99.19 8.41989 113.82 24.8799 119.02 49.6099C119.33 51.0699 119.67 52.5299 120 53.9799C120.12 62.4699 119.68 70.8699 116.9 79.0099C111.84 93.7999 102.07 104.67 88.97 112.79C80.59 116.44 72.06 119.41 62.78 119.85C51.55 120.38 41.19 117.31 31.12 112.79C24.02 108.13 17.4 102.95 12.23 96.0899C2.77996 83.5899 -0.570042 69.3699 0.079958 53.9799ZM50.72 27.0199C39 27.0199 31.08 31.3799 30.9 43.4499C30.81 49.2599 31.08 55.0899 30.75 60.8599C30.38 67.3899 30.57 73.8399 31.2 80.2799C31.75 85.9199 36.57 90.9799 42.1 91.7299C48.63 92.6199 55.27 93.1899 61.27 89.3199C63.82 87.6699 66.67 87.6699 69.47 88.0599C79.55 89.4599 89.81 80.5499 90.04 70.2899C90.22 62.3599 90.3 54.4199 90.7 46.4799C91.26 35.2499 86.83 26.5599 73.12 27.1899C65.18 27.5499 57.33 28.6399 50.72 27.0199Z" fill="#3971FE"/>
<path d="M50.7199 27.02C57.3299 28.64 65.1799 27.55 73.1099 27.19C86.8199 26.56 91.2599 35.25 90.6899 46.48C90.2899 54.42 90.2099 62.35 90.0299 70.29C89.7999 80.54 79.5499 89.46 69.4699 88.05C66.6699 87.66 63.8299 87.66 61.2699 89.31C55.2799 93.18 48.6299 92.61 42.0999 91.72C36.5699 90.97 31.7499 85.91 31.1999 80.27C30.5699 73.83 30.3799 67.37 30.7499 60.85C31.0799 55.09 30.8099 49.25 30.8999 43.44C31.0799 31.37 38.9999 27.02 50.7199 27.02ZM82.9999 78.95C83.7999 78.52 83.9799 77.78 83.9999 76.96C87.3099 76.13 86.9299 73.4 86.9799 70.98C87.1299 63 85.5299 55.11 87.6899 46.99C88.7499 43 89.2199 37.15 83.0099 35C82.6699 34.72 82.3299 34.43 81.9899 34.15C81.3299 30.75 78.5899 30.9 76.1899 31.05C65.7299 31.72 55.2699 31.3 44.8199 31.01C43.9999 31 43.1399 30.93 42.3599 31.13C40.7499 31.55 39.1199 32.07 39.0799 34.21C38.8099 34.48 38.5299 34.76 38.2599 35.03C35.4599 35.27 34.5099 36.95 34.0099 39.59C32.4799 47.65 33.2799 55.77 33.0799 63.86C32.9499 69.16 32.7799 74.49 34.2399 79.63C34.8499 81.78 34.6299 84.99 38.3599 84.82C39.8999 84.98 41.4399 85.14 42.9799 85.3C46.7199 89.06 50.3899 89.06 54.1099 85.29C55.7499 85.17 57.3999 85.06 59.0399 84.94C62.8999 83.24 66.7999 83.13 70.7999 84.52C71.1199 84.63 71.7599 83.84 72.2599 83.47C72.8399 83.61 73.4199 83.75 73.9999 83.9C76.6599 85.8 78.0299 84.37 79.0199 81.95C79.6799 81.61 80.3499 81.28 81.0099 80.94C82.3099 80.92 82.9699 80.25 82.9999 78.95Z" fill="#3971FE"/>
<path d="M59.04 84.95C57.4 85.07 55.75 85.18 54.11 85.3C50.4 84.89 46.69 84.89 42.98 85.31C41.44 85.15 39.9 84.99 38.35 84.83C38.32 68.23 38.28 51.63 38.25 35.03C38.52 34.76 38.8 34.48 39.07 34.21C44.45 34.23 49.83 34.22 55.2 34.3C56.7 34.32 58.62 33.65 59.21 35.97C59.21 50.31 59.21 64.65 59.21 78.99C59.16 80.97 59.1 82.96 59.04 84.95ZM49.85 76.54C48.05 76.73 46.25 77.05 44.45 77.09C42.54 77.14 41.79 77.95 41.84 79.84C41.9 81.68 42.99 82 44.47 82C47.62 81.99 50.78 82 53.93 82.02C55.36 82.03 56.12 81.46 55.85 79.93C55.89 66.88 55.88 53.84 56.02 40.8C56.05 38.22 55.21 37.11 52.62 37.41C51.15 37.58 49.67 37.66 48.2 37.77C47.07 37.6 45.95 37.34 44.81 37.27C43.05 37.17 41.45 37.41 41.33 39.74C41.2 42.29 42.75 42.84 44.82 42.7C45.95 42.62 47.07 42.35 48.2 42.17C50.69 47.73 45.15 44.13 44.16 45.71C42.89 45.06 41.84 45.39 41.53 46.75C41.23 48.08 40.72 49.78 43.03 50.02C45.33 50.26 47.59 50.52 45.18 53.59C43.44 53.01 42.01 53 41.81 55.37C41.6 57.84 42.91 58.42 45.04 58C46.38 58.52 48.91 57.21 48.85 59.75C48.79 61.9 46.54 60.71 45.28 61.05C44.82 61.18 44.27 61.04 43.83 61.21C42.47 61.71 41.05 62.09 41.14 64.09C41.22 66.04 42.5 65.96 43.83 66.06C46.6 66.28 46.88 67.49 45.12 69.45C43.22 68.92 41.82 69.17 41.83 71.59C41.86 74.89 44.19 73.96 46.06 73.89C47.82 74.06 49.93 73.75 49.85 76.54Z" fill="#EDF2FE"/>
<path d="M74 83.8997C73.42 83.7597 72.84 83.6197 72.26 83.4697C71.48 82.6397 70.69 81.7997 69.91 80.9697C66.43 76.0997 63.16 71.5597 63.77 64.6797C64.61 55.1797 63.87 45.5397 63.81 35.9697C64.45 33.6997 66.34 34.3697 67.85 34.3297C72.56 34.2197 77.28 34.2097 81.99 34.1597C82.33 34.4397 82.67 34.7297 83.01 35.0097C83.05 36.3397 83.09 37.6697 83.13 38.9997C83.13 42.9997 83.13 46.9897 83.12 50.9897C83.12 55.9797 83.12 60.9797 83.12 65.9697C83.65 71.0897 82.23 75.4197 78.16 78.8097C77.2 79.6097 76.62 80.8697 75.87 81.9097C75.25 82.5697 74.62 83.2397 74 83.8997ZM71.94 58.1297C71.93 58.1297 71.92 58.1297 71.91 58.1297C71.91 54.6397 71.91 51.1397 71.91 47.6497C71.91 45.9197 70.85 45.3897 69.34 45.3097C67.61 45.2297 67 46.1197 67.01 47.7497C67.03 54.5697 67.04 61.3897 67 68.2097C66.99 69.9997 67.48 70.9997 69.52 70.9797C71.61 70.9597 71.98 69.8297 71.95 68.1197C71.91 64.7897 71.94 61.4597 71.94 58.1297ZM74.98 57.9897C74.99 57.9897 74.99 57.9897 75 57.9897C75 61.4797 75.02 64.9797 74.99 68.4697C74.97 70.0497 75.47 70.9297 77.25 70.9697C79.16 71.0097 79.95 70.2997 79.93 68.3697C79.87 61.5497 79.89 54.7297 79.91 47.9097C79.92 45.9397 78.83 45.3197 77.06 45.3297C75.17 45.3397 74.97 46.5697 74.98 48.0097C74.99 51.3297 74.98 54.6597 74.98 57.9897ZM76.52 42.6197C78.67 42.7997 79.93 42.4797 79.97 40.3797C80.01 38.4597 79.61 37.1597 77.3 37.2297C74.66 37.3097 72.02 37.2797 69.37 37.2497C67.33 37.2197 66.97 38.4097 66.95 40.1297C66.93 42.0797 67.85 42.8897 69.67 42.6797C72.13 42.3897 74.56 41.8597 76.52 42.6197ZM77.45 74.0197C74.79 74.0197 72.67 74.0097 70.56 74.0397C70.3 74.0397 70.04 74.2897 69.78 74.4297C73.1 80.5697 73.4 80.5697 77.45 74.0197Z" fill="#F7F9FE"/>
<path d="M38.2599 35.0298C38.2899 51.6298 38.3299 68.2298 38.3599 84.8298C34.6299 84.9998 34.8499 81.7898 34.2399 79.6398C32.7799 74.4998 32.9399 69.1598 33.0799 63.8698C33.2799 55.7798 32.4899 47.6598 34.0099 39.5998C34.4999 36.9498 35.4599 35.2698 38.2599 35.0298Z" fill="#3971FE"/>
<path d="M82 34.1497C77.29 34.1997 72.57 34.2197 67.86 34.3197C66.35 34.3497 64.46 33.6897 63.82 35.9597C62.29 35.9597 60.76 35.9597 59.23 35.9597C58.64 33.6397 56.73 34.3097 55.22 34.2897C49.84 34.2097 44.47 34.2197 39.09 34.1997C39.13 32.0597 40.77 31.5497 42.37 31.1197C43.15 30.9197 44.01 30.9797 44.83 30.9997C55.29 31.2897 65.74 31.7097 76.2 31.0397C78.6 30.8997 81.34 30.7497 82 34.1497Z" fill="#4C7FFE"/>
<path d="M83.1399 38.9998C83.0999 37.6698 83.0599 36.3398 83.0199 35.0098C89.2299 37.1498 88.7699 43.0098 87.6999 46.9998C85.5399 55.1098 87.1299 63.0098 86.9899 70.9898C86.9499 73.4098 87.3199 76.1398 84.0099 76.9698C84.3399 75.0698 84.9699 73.1598 84.9099 71.2798C84.8499 69.4398 86.2499 66.8698 83.1299 65.9798C83.1299 60.9898 83.1299 55.9898 83.1299 50.9998C86.9699 47.1098 86.9699 41.3298 83.1399 38.9998Z" fill="#3971FE"/>
<path d="M69.9099 80.9698C70.6899 81.7998 71.4699 82.6398 72.2599 83.4698C71.7699 83.8398 71.1299 84.6298 70.7999 84.5198C66.7999 83.1298 62.9099 83.2498 59.0399 84.9398C59.0999 82.9498 59.1599 80.9698 59.2199 78.9798C63.0799 78.0198 66.2799 80.6398 69.9099 80.9698Z" fill="#3971FE"/>
<path d="M83.1299 65.9697C86.2499 66.8597 84.8499 69.4297 84.9099 71.2697C84.9699 73.1597 84.3399 75.0597 84.0099 76.9597C83.9899 77.7797 83.8099 78.5197 83.0099 78.9497C81.7099 78.9797 81.0499 79.6497 81.0099 80.9497C80.3499 81.2897 79.6799 81.6197 79.0199 81.9597C77.9799 81.9397 76.9299 81.9297 75.8899 81.9097C76.6399 80.8597 77.2199 79.6097 78.1799 78.8097C82.2399 75.4197 83.6599 71.0897 83.1299 65.9697Z" fill="#5283FE"/>
<path d="M42.98 85.3097C46.69 84.8797 50.4 84.8897 54.11 85.2997C50.39 89.0697 46.73 89.0697 42.98 85.3097Z" fill="#3971FE"/>
<path d="M75.88 81.9097C76.92 81.9297 77.97 81.9397 79.01 81.9597C78.02 84.3797 76.65 85.7997 73.99 83.9097C74.62 83.2397 75.25 82.5697 75.88 81.9097Z" fill="#4C7FFE"/>
<path d="M81.01 80.9497C81.04 79.6497 81.71 78.9897 83.01 78.9497C82.97 80.2497 82.31 80.9197 81.01 80.9497Z" fill="#4C7FFE"/>
<path d="M48.21 37.7701C49.68 37.6501 51.16 37.5701 52.63 37.4101C55.22 37.1101 56.05 38.2201 56.03 40.8001C55.89 53.8401 55.9 66.8901 55.86 79.9301C53.19 79.9901 50.28 80.4801 49.85 76.5501C49.93 73.7601 47.83 74.0601 46.07 73.8801C45.76 72.4001 45.44 70.9201 45.13 69.4401C46.88 67.4801 46.6 66.2701 43.84 66.0501C42.51 65.9501 41.23 66.0301 41.15 64.0801C41.07 62.0801 42.49 61.7001 43.84 61.2001C44.28 61.0401 44.82 61.1701 45.29 61.0401C46.55 60.7001 48.8 61.8901 48.86 59.7401C48.93 57.1901 46.39 58.5101 45.05 57.9901C45.1 56.5201 45.14 55.0501 45.19 53.5801C47.6 50.5101 45.34 50.2501 43.04 50.0101C42.82 48.4201 43.51 47.0601 44.17 45.7001C45.17 44.1201 50.7 47.7201 48.21 42.1601C48.21 40.7001 48.21 39.2301 48.21 37.7701Z" fill="#3971FE"/>
<path d="M69.91 80.97C66.29 80.64 63.09 78.02 59.22 78.98C59.22 64.64 59.22 50.3 59.22 35.96C60.75 35.96 62.28 35.96 63.81 35.96C63.87 45.54 64.61 55.18 63.77 64.67C63.16 71.57 66.42 76.1 69.91 80.97Z" fill="#3971FE"/>
<path d="M49.8499 76.54C50.2799 80.47 53.1899 79.98 55.8599 79.92C56.1299 81.45 55.3699 82.02 53.9399 82.01C50.7799 82 47.6299 81.99 44.4699 82C42.9799 82 41.8899 81.68 41.8399 79.84C41.7799 77.96 42.5399 77.14 44.4499 77.09C46.2499 77.05 48.0499 76.74 49.8499 76.54Z" fill="#3971FE"/>
<path d="M48.2099 37.7698C48.2099 39.2398 48.2099 40.6998 48.2199 42.1698C47.0899 42.3498 45.9699 42.6198 44.8399 42.6998C42.7699 42.8498 41.2199 42.2898 41.3499 39.7398C41.4699 37.4098 43.0599 37.1698 44.8299 37.2698C45.9499 37.3298 47.0799 37.5898 48.2099 37.7698Z" fill="#3971FE"/>
<path d="M45.12 69.4399C45.43 70.9199 45.75 72.3999 46.06 73.8799C44.2 73.9499 41.86 74.8799 41.83 71.5799C41.82 69.1599 43.22 68.9099 45.12 69.4399Z" fill="#3971FE"/>
<path d="M45.19 53.5798C45.14 55.0498 45.1 56.5198 45.05 57.9898C42.92 58.4098 41.61 57.8298 41.82 55.3598C42.02 52.9898 43.45 52.9998 45.19 53.5798Z" fill="#3971FE"/>
<path d="M44.17 45.6999C43.51 47.0599 42.82 48.4199 43.04 50.0099C40.73 49.7599 41.23 48.0699 41.54 46.7399C41.85 45.3799 42.9 45.0599 44.17 45.6999Z" fill="#759CFE"/>
<path d="M71.94 58.1299C71.94 61.4599 71.91 64.7899 71.95 68.1099C71.97 69.8299 71.61 70.9599 69.52 70.9699C67.48 70.9999 66.99 69.9999 67.01 68.2199C67.05 61.3999 67.04 54.5799 67.02 47.7599C67.01 46.1399 67.62 45.2399 69.35 45.3199C70.86 45.3899 71.92 45.9199 71.92 47.6599C71.91 51.1499 71.92 54.6499 71.92 58.1399C71.92 58.1299 71.93 58.1299 71.94 58.1299Z" fill="#3971FE"/>
<path d="M74.98 57.9897C74.98 54.6597 74.98 51.3397 74.98 48.0097C74.98 46.5697 75.18 45.3397 77.06 45.3297C78.83 45.3197 79.91 45.9397 79.91 47.9097C79.89 54.7297 79.87 61.5497 79.93 68.3697C79.95 70.2997 79.16 71.0197 77.25 70.9697C75.47 70.9297 74.97 70.0497 74.99 68.4697C75.03 64.9697 75 61.4797 75 57.9897C75 57.9897 74.99 57.9897 74.98 57.9897Z" fill="#3971FE"/>
<path d="M76.5199 42.62C74.5599 41.86 72.1299 42.39 69.6799 42.67C67.8599 42.88 66.9399 42.07 66.9599 40.12C66.9799 38.4 67.3399 37.21 69.3799 37.24C72.0199 37.28 74.6699 37.3 77.3099 37.22C79.6199 37.15 80.0199 38.45 79.9799 40.37C79.9299 42.48 78.6799 42.8 76.5199 42.62Z" fill="#3971FE"/>
<path d="M83.14 39C86.98 41.34 86.97 47.11 83.13 50.99C83.13 46.99 83.14 42.99 83.14 39Z" fill="#5283FE"/>
<path d="M77.4499 74.0197C73.3999 80.5697 73.1099 80.5697 69.7799 74.4197C70.0399 74.2897 70.2999 74.0397 70.5599 74.0297C72.6699 73.9997 74.7899 74.0197 77.4499 74.0197Z" fill="#3971FE"/>
</g>
<defs>
<clipPath id="clip0_363_100">
<rect width="120.01" height="119.92" fill="white"/>
</clipPath>
</defs>
</svg>
