<svg width="40" height="40" viewBox="0 0 120 120" fill="none" xmlns="http://www.w3.org/2000/svg">
<g clip-path="url(#clip0_364_151)">
<path d="M0.729936 49.9198C6.92994 19.4698 31.7199 -0.750213 61.9099 0.0197871C87.9699 0.679787 111.36 19.3198 117.87 44.5998C118.24 46.0498 118.64 47.4798 119.02 48.9298C119.8 55.8698 120.05 62.7498 119.02 69.7598C113.78 105.44 74.9799 128.74 40.8099 116.82C16.0199 108.17 -4.15006 82.6898 0.729936 49.9198ZM89.8999 57.3398C89.8999 52.3498 90.1699 47.3398 89.8399 42.3698C89.3299 34.8898 85.6499 28.2698 76.1899 27.7298C67.5599 27.2398 59.0599 27.5098 50.4699 27.6598C42.8499 27.7898 32.3999 38.4798 31.7999 46.2098C30.9399 57.3198 30.5699 68.3298 31.8899 79.4198C32.7799 86.9098 37.7299 91.8398 45.3699 91.8898C52.8599 91.9298 60.3599 91.5898 67.8299 91.9698C79.5299 92.5698 90.4599 80.9998 89.9299 69.8198C89.7399 65.6698 89.8999 61.4998 89.8999 57.3398Z" fill="#3971FE"/>
<path d="M89.9 57.3399C89.9 61.4999 89.74 65.67 89.93 69.82C90.46 81 79.53 92.5699 67.82 91.9599C60.35 91.5699 52.85 91.9199 45.36 91.8799C37.72 91.8299 32.78 86.9 31.88 79.41C30.56 68.32 30.93 57.3099 31.79 46.1999C32.39 38.4699 42.84 27.7899 50.46 27.6499C59.05 27.4999 67.55 27.2299 76.18 27.7199C85.64 28.2599 89.32 34.88 89.83 42.36C90.17 47.3299 89.9 52.3499 89.9 57.3399ZM83.07 77.9199C85.79 77.5899 85.91 75.62 85.91 73.51C85.89 62.71 85.92 51.91 85.88 41.11C85.87 38.9399 85.79 36.6899 83.06 35.9399C82.85 34.7199 82 34.2299 80.9 34.0099C79.98 30.8299 77.17 31.0599 74.85 31.0099C67.23 30.8499 59.6 30.8499 51.99 31.0099C49.68 31.0599 46.86 30.8199 45.94 34.0099C44.95 34.3199 43.96 34.6299 42.97 34.9399C39.53 35.3999 38.77 37.7299 38.92 40.7099C38.75 40.9299 38.53 41.0399 38.26 41.0499C34.58 41.7399 35.05 44.8499 35.01 47.2499C34.85 57.6599 34.92 68.07 34.96 78.47C34.97 80.77 34.91 83.2499 38.01 83.8799C38.64 84.3599 39.28 84.84 39.91 85.32C40.05 88.59 42.49 88.8299 44.84 88.8499C53.6 88.9199 62.37 88.9199 71.13 88.8499C73.51 88.8299 75.9 88.46 75.93 85.19C76.21 85 76.48 84.81 76.76 84.62C80.56 85.56 81.88 84.55 82.93 79.93C82.97 79.27 83.02 78.5899 83.07 77.9199Z" fill="#4278FE"/>
<path d="M38.27 41.0599C38.54 41.0499 38.76 40.9299 38.93 40.7199C40.9 40.7099 42.87 40.6999 44.84 40.6899C51.95 40.7699 59.07 40.8799 66.18 40.9099C76.13 40.9399 75.99 40.9199 76.16 50.7299C76.34 60.7899 75.37 70.8699 76.72 80.8999C76.73 82.1499 76.75 83.3899 76.76 84.6399C76.48 84.8299 76.21 85.0199 75.93 85.2099C63.93 85.2499 51.92 85.2999 39.92 85.3399C39.29 84.8599 38.65 84.3799 38.02 83.8999C38.1 69.6199 38.18 55.3399 38.27 41.0599ZM72.99 66.9099C73.04 60.5999 72.92 54.2799 73.21 47.9899C73.36 44.5599 71.95 43.8099 68.86 43.8799C61.39 44.0499 53.9 44.1099 46.43 43.8499C42.8 43.7199 41.48 44.6799 41.6 48.5199C41.88 57.3199 41.67 66.1299 41.68 74.9299C41.69 82.1999 41.7 82.1999 48.94 81.7899C52.26 81.8499 55.58 81.9499 58.9 81.9499C73.76 81.9799 73.76 81.9799 72.99 66.9099Z" fill="#EBF1FE"/>
<path d="M80.9 34.0098C82 34.2198 82.86 34.7098 83.06 35.9398C83.06 49.9298 83.06 63.9298 83.06 77.9198C83.01 78.5998 82.96 79.2698 82.91 79.9498C81.89 79.9498 80.87 79.9498 79.85 79.9398C79.86 67.1998 79.87 54.4498 79.88 41.7098C79.88 39.5498 80.23 37.1098 76.92 37.1898C66.19 37.4298 55.44 36.5298 44.72 37.6898C43.44 37.2298 42.97 36.2398 42.97 34.9598C43.96 34.6498 44.95 34.3398 45.94 34.0298C57.6 34.0098 69.25 34.0098 80.9 34.0098Z" fill="#ECF1FE"/>
<path d="M39.9199 85.34C51.9199 85.3 63.9299 85.25 75.9299 85.21C75.8999 88.48 73.5199 88.85 71.1299 88.87C62.3699 88.94 53.5999 88.94 44.8399 88.87C42.4899 88.84 40.0599 88.61 39.9199 85.34Z" fill="#497DFE"/>
<path d="M38.2699 41.0596C38.1899 55.3396 38.0999 69.6196 38.0199 83.8896C34.9299 83.2596 34.9799 80.7896 34.9699 78.4796C34.9299 68.0696 34.8599 57.6596 35.0199 47.2596C35.0599 44.8596 34.5899 41.7496 38.2699 41.0596Z" fill="#4B7EFE"/>
<path d="M83.0698 77.9199C83.0698 63.9299 83.0698 49.9299 83.0698 35.9399C85.7998 36.6899 85.8798 38.9399 85.8898 41.1099C85.9298 51.9099 85.8998 62.7099 85.9198 73.5099C85.9098 75.6199 85.7898 77.5899 83.0698 77.9199Z" fill="#4D7FFE"/>
<path d="M80.8999 34.0096C69.2499 34.0096 57.5899 34.0096 45.9399 34.0096C46.8599 30.8196 49.6699 31.0596 51.9899 31.0096C59.6099 30.8496 67.2399 30.8496 74.8499 31.0096C77.1699 31.0596 79.9799 30.8196 80.8999 34.0096Z" fill="#4D7FFE"/>
<path d="M42.97 34.9497C42.97 36.2397 43.44 37.2197 44.72 37.6797C44.76 38.6797 44.8 39.6797 44.83 40.6897C42.86 40.6997 40.89 40.7097 38.92 40.7197C38.77 37.7397 39.53 35.3997 42.97 34.9497Z" fill="#4B7EFE"/>
<path d="M79.86 79.9399C80.88 79.9399 81.9 79.9399 82.92 79.9499C81.88 84.5699 80.56 85.5799 76.75 84.6399C76.74 83.3899 76.72 82.1499 76.71 80.8999C77.77 80.5799 78.81 80.2599 79.86 79.9399Z" fill="#497DFE"/>
<path d="M48.95 81.7897C41.71 82.1997 41.69 82.1997 41.69 74.9297C41.68 66.1197 41.89 57.3097 41.61 48.5197C41.49 44.6797 42.8 43.7197 46.44 43.8497C53.91 44.1097 61.39 44.0497 68.87 43.8797C71.96 43.8097 73.38 44.5597 73.22 47.9897C72.94 54.2897 73.05 60.6097 73 66.9097C70.48 66.5297 69.96 64.1997 68.76 62.5397C68.51 61.4797 68.75 60.0197 67.05 60.0097C60.76 59.9697 54.47 59.9097 48.18 59.9997C45.84 60.0297 45.95 61.4397 46.95 63.0297C46.26 65.4397 45.55 67.8397 46.16 70.3897C46.22 71.3497 46.04 72.3897 46.95 73.0997C46.24 76.3097 49.18 78.6897 48.95 81.7897ZM57.56 54.7297C60.39 54.7297 63.22 54.7397 66.05 54.7197C67.23 54.7097 68.57 54.7297 68.53 53.0497C68.49 51.5197 67.27 51.2297 66.04 51.2297C60.21 51.2097 54.39 51.2097 48.56 51.2497C47.28 51.2597 46.19 51.7997 46.32 53.3097C46.43 54.5897 47.54 54.7197 48.57 54.7197C51.57 54.7397 54.56 54.7297 57.56 54.7297Z" fill="#5887FE"/>
<path d="M79.86 79.9396C78.81 80.2596 77.76 80.5796 76.72 80.8996C75.37 70.8696 76.34 60.7896 76.16 50.7296C75.99 40.9196 76.13 40.9396 66.18 40.9096C59.07 40.8896 51.95 40.7696 44.84 40.6896C44.8 39.6896 44.76 38.6796 44.73 37.6796C55.45 36.5196 66.2 37.4196 76.93 37.1896C80.24 37.1196 79.9 39.5496 79.89 41.7096C79.88 54.4496 79.87 67.1896 79.86 79.9396Z" fill="#3971FE"/>
<path d="M68.75 62.5396C69.95 64.1996 70.47 66.5296 72.99 66.9096C73.76 81.9796 73.76 81.9895 58.91 81.9595C55.59 81.9495 52.27 81.8496 48.95 81.7996C49.19 78.6896 46.24 76.3195 46.95 73.0995C49.62 73.0995 52.29 73.0995 54.95 73.0995C54.82 77.4895 58.53 78.0395 61.31 78.6695C64.78 79.4595 66.98 76.5596 69.01 74.1896C71.07 71.7896 68.6 69.9495 67.89 67.9195C67.26 66.1195 64.38 65.7095 64.9 63.1695C66.19 62.9595 67.47 62.7496 68.75 62.5396Z" fill="#4D7FFE"/>
<path d="M46.15 70.38C45.54 67.83 46.25 65.43 46.94 63.02C52.27 63.07 57.6 63.12 62.94 63.17C62.45 67.52 57.71 67.34 55.66 70.02C52.49 70.15 49.29 69.58 46.15 70.38Z" fill="#4D7FFE"/>
<path d="M57.56 54.7299C54.56 54.7299 51.57 54.7399 48.57 54.7199C47.54 54.7099 46.43 54.5899 46.32 53.3099C46.19 51.8099 47.27 51.2599 48.56 51.2499C54.39 51.2099 60.21 51.2099 66.04 51.2299C67.26 51.2299 68.49 51.5199 68.53 53.0499C68.57 54.7299 67.23 54.7099 66.05 54.7199C63.22 54.7499 60.39 54.7299 57.56 54.7299Z" fill="#E1E9FE"/>
<path d="M62.94 63.1698C57.61 63.1198 52.28 63.0698 46.94 63.0198C45.94 61.4298 45.84 60.0298 48.17 59.9898C54.46 59.8998 60.75 59.9598 67.04 59.9998C68.74 60.0098 68.5 61.4698 68.75 62.5298C67.47 62.7398 66.19 62.9498 64.91 63.1598C64.25 63.1698 63.6 63.1698 62.94 63.1698Z" fill="#F6F8FE"/>
<path d="M46.1499 70.3798C49.2899 69.5798 52.4899 70.1398 55.6599 70.0198C55.8499 71.1398 56.2799 72.3198 54.9499 73.0898C52.2799 73.0898 49.6099 73.0898 46.9499 73.0898C46.0299 72.3798 46.2199 71.3498 46.1499 70.3798Z" fill="#E1E9FE"/>
<path d="M54.9499 73.0997C56.2799 72.3297 55.8499 71.1497 55.6599 70.0297C57.7199 67.3497 62.4499 67.5197 62.9399 63.1797C63.5999 63.1797 64.2499 63.1797 64.9099 63.1797C64.3899 65.7197 67.2699 66.1297 67.8999 67.9297C68.6099 69.9597 71.0799 71.7997 69.0199 74.1997C66.9899 76.5697 64.7899 79.4697 61.3199 78.6797C58.5299 78.0297 54.8199 77.4897 54.9499 73.0997Z" fill="#3971FE"/>
</g>
<defs>
<clipPath id="clip0_364_151">
<rect width="119.71" height="119.96" fill="white"/>
</clipPath>
</defs>
</svg>
