<svg width="40" height="40" viewBox="0 0 120 120" fill="none" xmlns="http://www.w3.org/2000/svg">
<g clip-path="url(#clip0_363_126)">
<path d="M2.11009 42.9298C2.44009 41.9498 2.77009 40.9598 3.11009 39.9798C3.82009 39.4698 4.00009 38.7598 3.92009 37.9398C11.0301 22.1398 22.0501 10.2298 38.4801 4.01977C70.1001 -7.92023 104.21 7.64977 116.16 39.3198C116.62 40.5498 117.23 41.7298 117.76 42.9398C121.32 57.6598 120.47 72.0098 114.12 85.8998C113.63 86.7698 113.13 87.6298 112.64 88.4998C98.8601 113.17 71.4401 125.05 44.1801 117.73C26.6301 113.02 14.1701 101.82 5.75009 85.8998C4.50009 82.3298 3.10009 78.8098 2.01009 75.1898C-1.21991 64.4398 -0.0899072 53.6698 2.11009 42.9298ZM96.9001 55.3698C96.9001 51.8898 96.8701 49.2298 96.9001 46.5598C97.1401 28.2798 82.7401 20.7098 67.8301 23.7498C57.5201 25.8498 47.7601 30.0298 36.8001 29.1698C31.5601 28.7598 27.1301 33.2998 26.0501 38.6598C24.0401 48.6798 24.7901 58.8098 25.4901 68.9098C25.8501 74.1598 27.9701 78.8198 32.3501 81.6298C41.1201 87.2598 50.2501 92.8198 60.8501 93.4998C65.4401 93.7998 71.6201 93.7398 74.2801 87.9798C76.1901 83.8398 79.1701 82.1798 83.5801 81.7898C90.6901 81.1598 94.3901 77.1698 96.0601 70.4298C97.3901 65.1198 96.4601 59.8298 96.9001 55.3698Z" fill="#3972FE"/>
<path d="M96.9002 55.3697C96.4702 59.8297 97.3902 65.1197 96.0702 70.4297C94.4002 77.1697 90.7001 81.1697 83.5901 81.7897C79.1801 82.1797 76.2102 83.8397 74.2902 87.9797C71.6302 93.7397 65.4602 93.7997 60.8602 93.4997C50.2702 92.8197 41.1302 87.2597 32.3602 81.6297C27.9802 78.8197 25.8702 74.1497 25.5002 68.9097C24.8002 58.8097 24.0402 48.6797 26.0602 38.6597C27.1402 33.2997 31.5702 28.7597 36.8102 29.1697C47.7702 30.0297 57.5301 25.8497 67.8401 23.7497C82.7601 20.7097 97.1502 28.2797 96.9102 46.5597C96.8702 49.2297 96.9002 51.8897 96.9002 55.3697ZM50.0602 85.7197C51.4602 89.0597 57.4602 91.8797 62.3402 90.6697C65.4602 89.8897 70.0102 90.7797 70.9202 85.7997C71.1402 84.8697 71.3701 83.9297 71.5901 82.9997C75.3701 79.5797 80.0702 78.6097 84.9002 77.8897C86.7002 77.6197 88.5502 77.2597 88.9102 74.9597C89.2102 74.5997 89.5102 74.2497 89.8002 73.8897C92.1602 73.6397 92.8402 71.7997 92.8102 69.9897C92.6702 61.2197 94.5502 52.5497 93.9002 43.7597C93.2802 35.2797 88.9302 28.8897 81.2302 27.3997C75.4602 26.2897 69.2202 25.7997 63.5502 27.7697C55.9902 30.3897 48.5702 32.6097 40.4002 32.1497C38.2502 32.0297 34.3501 31.3497 33.9401 35.6497C33.3101 36.0797 32.6801 36.5197 32.0501 36.9497C30.1501 37.0297 29.3201 38.4697 29.2201 39.9197C28.7002 47.6697 28.8802 55.4597 28.5102 63.2197C28.4002 65.4297 27.9002 67.8797 28.5402 70.4297C31.0602 80.4897 39.2701 83.5797 50.1001 85.7297L50.0602 85.7197Z" fill="#4177FE"/>
<path d="M89.8001 73.8898C89.5001 74.2498 89.2001 74.5998 88.9101 74.9598C83.5801 74.9998 78.2501 75.0398 72.93 75.0698C71.27 75.0598 69.61 75.0598 67.96 75.0498C61.75 75.3298 54.58 72.2798 50.55 80.0898C50.41 80.3598 50.15 80.5698 49.94 80.8198C45.42 80.1498 39.0901 83.9198 37.5601 75.7798C37.4901 75.4198 36.46 74.9398 35.94 75.0098C32.05 75.4998 32.19 72.9898 32.19 70.3198C32.19 59.1998 32.11 48.0698 32.05 36.9498C32.68 36.5198 33.31 36.0798 33.94 35.6498C40.08 35.7098 46.23 35.8998 52.37 35.7998C56.11 35.7298 60.77 37.5398 62.21 31.5698C62.49 30.3998 64.37 30.2198 65.75 30.2198C67.41 30.2198 69.1401 29.9198 70.7201 30.2598C75.5801 31.3098 82.54 26.7998 84.67 35.3798C84.73 35.6098 85.58 35.8198 86.02 35.7598C90 35.2398 89.68 37.9198 89.68 40.4998C89.69 51.6298 89.7601 62.7598 89.8001 73.8898ZM84.02 57.9498C83.37 59.9498 81.3301 59.9598 79.9001 60.8298C75.2801 60.7498 70.6601 60.7198 66.0401 60.5698C62.7101 60.4698 60.9 58.9198 61 55.2998C61.11 51.5098 60.91 47.7098 60.84 43.9198C62.22 38.1998 58.58 38.6298 54.92 39.0898C49.64 39.0398 44.35 39.0398 39.07 38.9198C36.94 38.8698 35.53 39.2998 35.71 41.8598C36.05 46.7998 34.8 51.7398 35.69 56.6898C34.58 60.9098 35.3801 65.2098 35.2001 69.4598C35.1601 70.4498 35.28 71.6398 36.6 71.6198C37.95 71.5998 37.88 70.3698 37.91 69.4098C38.01 65.2898 38.08 61.1798 38.16 57.0598C47.59 51.9998 53.52 55.1998 53.71 65.4498C53.73 66.2698 53.82 67.0798 53.87 67.8998C53.04 71.5598 54.89 72.2498 57.96 71.5898C65.6 71.5998 73.25 71.5998 80.89 71.6098C85.46 72.7498 87.1501 70.9498 86.5401 66.3598C86.1801 63.6298 86.2601 60.8398 86.1501 58.0798C87.2801 52.6498 86.41 47.1598 86.63 41.6998C86.67 40.6198 86.8401 39.0198 85.1201 39.1798C83.4601 39.3298 83.96 40.9498 83.95 41.9998C83.94 47.3198 83.99 52.6298 84.02 57.9498ZM46.9501 76.8198C50.6101 77.5298 50.2201 75.2098 49.8601 72.9198C49.9801 69.2898 50.0601 65.6598 50.2401 62.0398C50.3601 59.7798 49.5501 58.8698 47.1501 58.7298C41.2301 58.3898 40.96 58.5098 40.96 64.3198C40.96 66.6298 41.21 68.9798 40.94 71.2498C40.35 76.0598 42.1301 77.9998 46.9501 76.8198ZM64.43 48.8998C64.33 50.2198 64.3 51.5498 64.13 52.8598C63.6 56.7698 65.1501 58.0898 69.1501 57.9498C78.3001 57.6398 81.06 58.8198 80.89 46.1198C80.86 43.9898 80.57 41.8298 80.46 39.7398C80.19 34.3898 77.53 33.6198 72.85 33.8498C64.4 34.2698 64.38 33.9898 64.63 42.8898C64.02 44.8798 64.06 46.8798 64.43 48.8998Z" fill="#ECF1FE"/>
<path d="M89.8002 73.8896C89.7502 62.7596 89.6902 51.6296 89.6802 40.4996C89.6802 37.9196 90.0002 35.2396 86.0202 35.7596C85.5802 35.8196 84.7302 35.6096 84.6702 35.3796C82.5402 26.7996 75.5802 31.3096 70.7202 30.2596C69.1302 29.9196 67.4102 30.2196 65.7502 30.2196C64.3702 30.2196 62.5002 30.3996 62.2102 31.5696C60.7602 37.5396 56.1102 35.7296 52.3702 35.7996C46.2302 35.9096 40.0902 35.7196 33.9402 35.6496C34.3502 31.3596 38.2502 32.0296 40.4002 32.1496C48.5702 32.6096 55.9902 30.3896 63.5502 27.7696C69.2202 25.7996 75.4702 26.2896 81.2302 27.3996C88.9302 28.8896 93.2802 35.2896 93.9002 43.7596C94.5402 52.5496 92.6602 61.2196 92.8102 69.9896C92.8402 71.7996 92.1702 73.6396 89.8002 73.8896Z" fill="#4E80FE"/>
<path d="M32.0402 36.9399C32.0902 48.0599 32.1802 59.1899 32.1802 70.3099C32.1802 72.9799 32.0402 75.4799 35.9302 74.9999C36.4502 74.9299 37.4802 75.4099 37.5502 75.7699C39.0802 83.9199 45.4102 80.1399 49.9302 80.8099C49.9502 81.5399 49.9702 82.2599 49.9902 82.9899C50.0202 83.8999 50.0502 84.8199 50.0802 85.7299C39.2602 83.5799 31.0402 80.4899 28.5202 70.4299C27.8802 67.8799 28.3802 65.4299 28.4902 63.2199C28.8602 55.4499 28.6802 47.6699 29.2002 39.9199C29.3102 38.4599 30.1502 37.0199 32.0402 36.9399Z" fill="#4E80FE"/>
<path d="M50.09 85.7296C50.06 84.8196 50.03 83.8996 50 82.9896C51.57 82.3996 54.29 83.9596 54.68 81.5996C55.18 78.6096 56.97 79.1796 58.89 78.8396C62.77 78.1496 65.56 79.7096 67.98 82.4396C68.97 82.4896 69.95 82.5396 70.94 82.5896C71.08 82.8496 71.3 82.9796 71.59 82.9996C71.37 83.9296 71.14 84.8696 70.92 85.7996C63.97 85.7796 57.02 85.7496 50.06 85.7296H50.09Z" fill="#F4F7FE"/>
<path d="M50.0601 85.7197C57.0101 85.7397 63.9601 85.7697 70.9201 85.7897C70.0101 90.7697 65.4701 89.8797 62.3401 90.6597C57.4601 91.8797 51.4501 89.0597 50.0601 85.7197Z" fill="#4E80FE"/>
<path d="M71.5902 82.9897C71.3002 82.9697 71.0802 82.8397 70.9402 82.5797C70.6202 79.8097 73.3002 77.8397 72.9302 75.0597C78.2602 75.0197 83.5902 74.9797 88.9102 74.9497C88.5502 77.2597 86.6902 77.6097 84.9002 77.8797C80.0702 78.6097 75.3702 79.5697 71.5902 82.9897Z" fill="#4E80FE"/>
<path d="M35.7002 56.7C34.8202 51.76 36.0602 46.81 35.7202 41.87C35.5402 39.31 36.9502 38.88 39.0802 38.93C44.3602 39.05 49.6502 39.05 54.9302 39.1C55.7902 42.07 57.5402 43.96 60.8502 43.93C60.9202 47.72 61.1202 51.52 61.0102 55.31C60.9002 58.93 62.7202 60.47 66.0502 60.58C70.6702 60.73 75.2902 60.76 79.9102 60.84C80.9602 64.37 82.1602 67.88 80.9102 71.62C73.2702 71.61 65.6202 71.61 57.9802 71.6C58.0802 68.75 56.5402 67.71 53.8902 67.91C53.8302 67.09 53.7402 66.28 53.7302 65.46C53.5302 55.21 47.6002 52 38.1702 57.07C37.3502 56.95 36.5202 56.82 35.7002 56.7ZM47.9602 43C47.4802 43 46.4502 42.82 45.5002 43.04C43.1902 43.58 41.0102 44.32 40.9402 47.38C40.8802 50.2 42.8202 51.09 44.9202 51.73C46.8002 52.3 48.7802 52.76 50.7302 52.85C52.7502 52.94 55.1802 53.7 56.3602 50.99C57.5202 48.32 55.7702 46.64 54.3402 44.83C52.8002 42.87 50.6902 42.77 47.9602 43Z" fill="#4D80FE"/>
<path d="M64.6301 42.8899C64.3901 33.9899 64.4001 34.2699 72.8501 33.8499C77.5301 33.6199 80.1801 34.3899 80.4601 39.7399C80.5701 41.8299 80.8601 43.9899 80.8901 46.1199C81.0701 58.8199 78.3001 57.6399 69.1501 57.9499C65.1501 58.0899 63.6001 56.7699 64.1301 52.8599C64.3101 51.5499 64.3401 50.2199 64.4301 48.8999C67.1101 48.5499 68.0901 51.2999 70.1701 52.0499C70.4201 53.3399 68.9101 55.6699 71.6601 55.4799C73.3001 55.3599 75.7401 54.8999 74.7901 51.9799C78.8101 49.1499 78.0901 45.3699 77.2501 41.3199C76.7301 38.8099 75.9401 36.8399 73.3401 36.2499C70.4401 35.5899 69.3401 38.0099 68.0201 39.8299C67.0901 41.1099 66.8201 43.0299 64.6301 42.8899Z" fill="#5686FE"/>
<path d="M70.18 52.0398C68.1 51.2898 67.12 48.5397 64.44 48.8897C64.06 46.8697 64.02 44.8698 64.64 42.8898C66.83 43.0298 67.1 41.0998 68.04 39.8198C69.36 37.9998 70.45 35.5898 73.36 36.2398C75.96 36.8298 76.75 38.7998 77.27 41.3098C78.11 45.3498 78.83 49.1398 74.81 51.9698C73.26 51.9998 71.72 52.0198 70.18 52.0398Z" fill="#497DFE"/>
<path d="M46.9501 76.8197C42.1301 78.0097 40.3501 76.0597 40.9301 71.2597C41.2001 68.9797 40.9501 66.6397 40.9501 64.3297C40.9501 58.5197 41.2301 58.3997 47.1401 58.7397C49.5301 58.8797 50.3401 59.7997 50.2301 62.0497C50.0401 65.6697 49.9701 69.2997 49.8501 72.9297C49.1901 73.5797 48.5301 74.2297 47.8701 74.8797C48.2701 72.9297 47.8701 71.6097 45.4801 71.8397C44.5201 71.9297 43.2401 71.8097 43.2401 73.1197C43.2401 75.8597 45.6601 74.4797 46.9401 75.0697C46.9401 75.6497 46.9401 76.2297 46.9501 76.8197Z" fill="#618DFE"/>
<path d="M67.9702 82.4397C65.5502 79.7097 62.7602 78.1497 58.8802 78.8397C56.9602 79.1797 55.1702 78.6097 54.6702 81.5997C54.2802 83.9597 51.5602 82.3997 49.9902 82.9897C49.9702 82.2597 49.9502 81.5397 49.9302 80.8097C50.1402 80.5697 50.4002 80.3597 50.5402 80.0797C54.5702 72.2697 61.7402 75.3097 67.9502 75.0397C67.9602 77.5097 67.9702 79.9797 67.9702 82.4397Z" fill="#6691FE"/>
<path d="M80.9001 71.6097C82.1501 67.8697 80.9501 64.3597 79.9001 60.8297C81.3301 59.9497 83.3701 59.9497 84.0201 57.9497C84.7301 57.9897 85.4501 58.0397 86.1601 58.0797C86.2801 60.8397 86.1901 63.6297 86.5501 66.3597C87.1601 70.9497 85.4701 72.7497 80.9001 71.6097Z" fill="#5383FE"/>
<path d="M86.1601 58.0898C85.4501 58.0498 84.7301 57.9998 84.0201 57.9598C83.9901 52.6398 83.9301 47.3298 83.9601 42.0098C83.9701 40.9598 83.4701 39.3498 85.1301 39.1898C86.8501 39.0298 86.6801 40.6298 86.6401 41.7098C86.4301 47.1698 87.2901 52.6598 86.1601 58.0898Z" fill="#7AA0FE"/>
<path d="M35.7001 56.6997C36.5201 56.8197 37.3501 56.9397 38.1701 57.0697C38.0901 61.1897 38.0201 65.2997 37.9201 69.4197C37.9001 70.3797 37.9701 71.6097 36.6101 71.6297C35.2901 71.6497 35.1701 70.4597 35.2101 69.4697C35.3901 65.2197 34.5901 60.9197 35.7001 56.6997Z" fill="#7FA3FE"/>
<path d="M67.9702 82.4396C67.9602 79.9696 67.9602 77.5096 67.9502 75.0396C69.6102 75.0496 71.2702 75.0495 72.9202 75.0595C73.2802 77.8395 70.6102 79.8196 70.9302 82.5796C69.9502 82.5396 68.9602 82.4896 67.9702 82.4396Z" fill="#5182FE"/>
<path d="M60.8502 43.9296C57.5402 43.9596 55.8002 42.0696 54.9302 39.0996C58.5902 38.6396 62.2302 38.2096 60.8502 43.9296Z" fill="#5686FE"/>
<path d="M53.88 67.9098C56.53 67.7098 58.07 68.7398 57.97 71.5998C54.9 72.2598 53.06 71.5698 53.88 67.9098Z" fill="#5C8AFE"/>
<path d="M47.8702 74.8699C48.5302 74.2199 49.1902 73.5699 49.8502 72.9199C50.2102 75.2099 50.6102 77.5299 46.9402 76.8199C46.9402 76.2399 46.9402 75.6499 46.9402 75.0699C47.2402 74.9399 47.5502 74.8799 47.8702 74.8699Z" fill="#6792FE"/>
<path d="M47.9601 42.9998C50.6901 42.7698 52.8001 42.8698 54.3401 44.8298C55.7701 46.6498 57.5301 48.3198 56.3601 50.9898C55.1801 53.6998 52.7501 52.9398 50.7301 52.8498C48.7801 52.7598 46.8001 52.2998 44.9201 51.7298C42.8201 51.0998 40.8701 50.1998 40.9401 47.3798C41.0101 44.3098 43.1901 43.5798 45.5001 43.0398C46.4501 42.8098 47.4801 42.9998 47.9601 42.9998Z" fill="#4278FE"/>
<path d="M70.1801 52.0397C71.7201 52.0197 73.2601 51.9897 74.8001 51.9697C75.7501 54.8897 73.3101 55.3597 71.6701 55.4697C68.9201 55.6697 70.4201 53.3297 70.1801 52.0397Z" fill="#ECF1FE"/>
<path d="M47.87 74.8697C47.55 74.8797 47.24 74.9497 46.94 75.0597C45.66 74.4697 43.25 75.8497 43.24 73.1097C43.24 71.7897 44.52 71.9197 45.48 71.8297C47.87 71.5997 48.27 72.9197 47.87 74.8697Z" fill="#EFF3FE"/>
</g>
<defs>
<clipPath id="clip0_363_126">
<rect width="119.85" height="119.85" fill="white"/>
</clipPath>
</defs>
</svg>
