<svg width="254" height="63" viewBox="0 0 254 63" fill="none" xmlns="http://www.w3.org/2000/svg">
<path d="M194.55 47.04C191.73 50 188.78 52.86 186.12 55.96C181.87 60.92 176.27 62.61 170.12 62.73C160.97 62.9 151.8 62.67 142.65 62.83C139.26 62.89 137.9 61.85 137.93 58.29C138.06 40.82 138.04 23.35 137.94 5.87004C137.92 2.55004 138.8 0.950041 142.44 1.12004C147.42 1.35004 152.44 1.34004 157.42 1.12004C160.69 0.970041 161.76 2.09004 161.69 5.38004C161.5 14.69 161.62 24.02 161.63 33.33C161.64 39.26 165.04 41.77 169.98 38.24C177.07 33.16 185.3 28.2 184.06 17.14C183.63 13.36 184.11 9.49004 183.96 5.67004C183.84 2.61004 184.72 1.01004 188.15 1.13004C193.47 1.32004 198.8 1.18004 204.13 1.18004C205.84 1.18004 207.64 1.08004 207.6 3.58004C207.45 12.22 208.08 20.87 207.24 29.5C207.18 30.15 206.7 30.82 206.79 31.43C207.19 34.24 202.37 37.4 204.96 38.56C208.55 40.17 213.82 40.58 217.38 37.63C224.51 31.73 231.25 25.96 230.26 14.63C229.09 1.25004 229.99 1.18004 243.63 1.18004C253.74 1.18004 253.71 1.18004 253.75 11.45C253.85 36.72 253.8 32.44 238.24 50.43C226.74 63.73 213.01 63.11 198.36 62.77C195.99 62.71 195.73 61.25 195.74 59.43C195.76 55.52 195.75 51.6 195.75 47.69C195.34 47.47 194.95 47.25 194.55 47.04Z" fill="#B2B2B2"/>
<path d="M61.7 31.74C61.7 23.09 61.89 14.44 61.61 5.80004C61.49 1.94004 62.85 1.01004 66.48 1.10004C75.79 1.32004 85.12 1.20004 94.44 1.17004C100.04 1.15004 104.87 2.99004 108.84 6.93004C114.17 12.19 119.49 17.46 124.73 22.8C128.73 26.88 130.91 31.68 130.75 37.58C130.55 44.73 130.6 51.88 130.75 59.03C130.81 61.81 129.92 62.91 127.06 62.82C121.74 62.66 116.41 62.68 111.09 62.81C108.44 62.87 107.6 61.77 107.66 59.25C107.78 54.26 107.77 49.27 107.67 44.28C107.51 36.12 96.78 24.96 89.26 24.73C85.89 24.62 84.56 25.54 84.63 29.15C84.85 38.96 84.58 48.78 84.77 58.59C84.83 61.89 83.77 62.99 80.5 62.84C75.68 62.61 70.84 62.57 66.03 62.85C62.37 63.06 61.56 61.53 61.63 58.2C61.82 49.38 61.7 40.56 61.7 31.74Z" fill="#B2B2B2"/>
<path d="M27.23 0.950069C34.88 0.950069 42.54 1.06007 50.19 0.900069C53.31 0.830069 54.77 1.64007 54.61 5.07007C54.37 10.2201 54.46 15.3801 54.58 20.5401C54.64 23.3901 53.77 24.8001 50.62 24.8501C46.86 24.9101 41.92 23.0701 39.61 25.7001C37.04 28.6401 38.85 33.6601 38.76 37.7701C38.6 44.7501 38.61 51.7501 38.77 58.7301C38.84 61.6701 38.02 62.9501 34.86 62.8201C29.87 62.6101 24.87 62.6101 19.88 62.8201C16.6 62.9601 15.57 61.8101 15.63 58.5201C15.83 48.8701 15.56 39.2201 15.77 29.5801C15.85 25.9701 14.94 24.6601 11.07 24.6801C0 24.7601 0 24.5901 0 13.7301C0 1.17007 0 1.17007 12.74 1.17007C17.57 1.17007 22.39 1.17007 27.22 1.17007C27.23 1.10007 27.23 1.02007 27.23 0.950069Z" fill="#B2B2B2"/>
</svg>
