<svg width="275" height="91" viewBox="0 0 275 91" fill="none" xmlns="http://www.w3.org/2000/svg">
<path d="M52.94 32.0602C56.94 32.0602 60.94 32.2402 64.93 32.0002C68.27 31.8002 69.44 33.3902 69.49 36.3602C69.79 53.5002 60.33 66.7602 42.89 69.7002C20.46 73.4702 -0.0200093 56.0902 0.979991 34.0802C1.61999 19.9702 8.89999 9.60021 21.76 3.60021C34.09 -2.15979 46 -0.979788 57.05 7.03021C58.3 7.93021 61.91 8.74021 59.39 11.1902C57.3 13.2202 55.68 17.9002 51.07 14.7202C43.71 9.64021 35.86 8.59021 27.4 11.8002C16.73 15.8502 9.90999 27.6802 11.85 39.0702C13.92 51.1802 23.74 59.9302 35.51 60.1402C47.16 60.3502 55.24 55.3902 58.13 46.6202C59.3 43.0902 58.63 41.7102 54.75 41.8802C49.93 42.0902 45.08 41.7302 40.27 41.9802C35.74 42.2202 36.81 39.1502 36.64 36.6502C36.46 33.8702 36.67 31.7502 40.46 32.0002C44.6 32.2702 48.77 32.0602 52.94 32.0602Z" fill="#B4B4B4"/>
<path d="M203.47 66.3699C193.51 71.6399 185.03 71.0299 178.18 64.8199C170.63 57.9799 168.29 48.2499 171.95 38.9499C175.26 30.5599 183.71 24.8499 192.56 25.0399C192.89 25.0499 193.26 24.9699 193.55 25.0699C198.96 27.0099 204.35 28.0199 210.12 26.2499C212.91 25.3899 213.73 27.2899 213.71 29.9799C213.6 43.1199 213.83 56.2699 213.57 69.4099C213.37 79.5099 207.84 86.7899 199.16 89.4199C190.04 92.1799 180.42 89.0499 174.73 81.2899C173.71 79.8899 171.19 77.7699 173.79 76.3499C176.25 75.0099 179.22 71.7599 182.49 75.8099C186.67 80.9799 191.86 82.4499 197.02 80.3399C202.09 78.2699 204.19 73.8499 203.47 66.3699ZM180.6 47.6599C180.58 55.4299 185.73 61.0499 192.84 61.0199C199.71 60.9899 204.65 55.4999 204.72 47.8199C204.79 40.0299 199.61 34.0399 192.79 34.0199C186 33.9899 180.62 39.9999 180.6 47.6599Z" fill="#B4B4B4"/>
<path d="M166.75 47.4802C166.77 60.8602 157.58 70.0002 144.14 69.9702C131.2 69.9502 121.75 60.5602 121.71 47.6902C121.67 34.7902 131.52 24.9902 144.45 25.0402C157.34 25.1002 166.74 34.5402 166.75 47.4802ZM156.77 47.6802C156.82 39.8802 151.31 33.9302 144.11 34.0102C137.14 34.0902 131.82 39.8802 131.71 47.4902C131.6 55.1902 137.08 61.0102 144.45 61.0202C151.62 61.0202 156.73 55.4902 156.77 47.6802Z" fill="#B4B4B4"/>
<path d="M95.3101 69.9802C82.6001 69.9202 72.8301 60.1902 72.8101 47.5602C72.7901 34.8402 82.8901 24.9802 95.8501 25.0502C108.31 25.1202 118.56 35.3302 118.49 47.6002C118.43 60.1602 108.2 70.0402 95.3101 69.9802ZM95.2901 34.0102C88.2701 34.0702 82.6401 40.4102 82.8001 48.0802C82.9601 55.4602 88.6201 61.0902 95.8301 61.0202C102.91 60.9502 108.36 55.1402 108.44 47.5902C108.51 40.3702 102.3 33.9502 95.2901 34.0102Z" fill="#B4B4B4"/>
<path d="M255.74 69.9801C242.58 69.9301 232.38 59.4001 232.89 46.8701C233.42 33.7101 243.66 24.2101 256.37 25.0701C263.61 25.5601 272.42 33.1601 274.11 40.0301C274.75 42.6501 272.88 42.8001 271.5 43.3901C263.85 46.6301 256.15 49.7601 248.48 52.9701C244.67 54.5701 244.55 55.9101 247.89 58.5301C252.63 62.2501 259.61 62.2301 264.3 57.4101C268.35 53.2501 270.38 57.3201 272.45 58.8801C275.56 61.2401 272.11 62.9101 270.69 64.2201C266.39 68.2101 261.29 70.4501 255.74 69.9801ZM243.11 46.8901C248.96 44.4501 254.29 42.2701 259.58 39.9801C260.68 39.5001 262.54 39.3901 262.28 37.6501C262.09 36.3301 260.73 35.6001 259.54 34.9701C252.24 31.0901 244.17 36.6001 243.11 46.8901Z" fill="#B4B4B4"/>
<path d="M228.82 36.4999C228.82 45.8099 228.68 55.1199 228.89 64.4299C228.97 67.9299 227.85 69.0899 224.36 68.9599C221.3 68.8499 219.48 68.6399 219.52 64.7299C219.7 45.4499 219.69 26.1599 219.53 6.8799C219.5 3.2499 221.14 2.8999 224.06 2.8899C227.12 2.8799 229.01 3.1499 228.91 7.0699C228.65 16.8799 228.82 26.6899 228.82 36.4999Z" fill="#B2B2B2"/>
</svg>
