<svg width="242" height="85" viewBox="0 0 242 85" fill="none" xmlns="http://www.w3.org/2000/svg">
<path d="M241.04 2.10018C223.16 9.69018 205.29 17.2802 187.4 24.8502C146.82 42.0302 106.26 59.2602 65.6401 76.3202C53.8001 81.2902 41.6201 85.1402 28.5101 84.9502C8.5801 84.6702 -2.78993 70.3802 1.54007 51.0102C5.03007 35.3902 14.1501 22.9802 24.2301 11.1202C26.8901 7.99018 29.7101 5.01018 32.8701 1.50018C33.6401 4.01018 32.3301 5.24018 31.7801 6.62018C28.7501 14.2002 26.08 21.7902 27.46 30.2402C29.13 40.4802 36.5801 47.4002 47.1601 48.0802C55.3601 48.6002 63.3901 47.7702 71.3601 45.6502C113.74 34.3902 156.15 23.2402 198.55 12.0502C212.64 8.33017 226.73 4.63018 240.83 0.930176C240.9 1.32018 240.97 1.71018 241.04 2.10018Z" fill="#B2B2B2"/>
</svg>
