<svg width="259" height="81" viewBox="0 0 259 81" fill="none" xmlns="http://www.w3.org/2000/svg">
<path d="M0.590015 62.9698C0.330015 60.0698 1.36003 57.0798 2.73003 54.2098C9.88003 39.1998 16.8101 24.0798 24.9301 9.54979C27.6401 4.69979 31.1001 0.979792 37.3101 0.889792C43.5101 0.799792 47.66 3.60979 50.58 8.88979C59.1 24.3398 66.67 40.2498 74 56.2798C77.28 63.4298 75.6101 70.1198 70.2901 75.5598C64.9101 81.0598 58.2701 82.3398 51.0201 79.4098C46.9501 77.7698 43.3601 75.3498 40.4201 72.1098C38.7201 70.2298 37.5501 70.0898 35.6501 72.0098C32.3601 75.3398 28.4801 77.9598 24.0401 79.5898C12.0601 84.0198 0.480015 75.9698 0.590015 62.9698ZM69.83 63.9198C69.92 61.7298 69.67 59.6098 68.75 57.5898C61.74 42.1498 54.6301 26.7398 46.2601 11.9798C41.5701 3.69979 34.06 4.04979 29.47 12.4998C25.98 18.9298 22.7201 25.4898 19.5201 32.0698C15.1601 41.0398 10.6401 49.9498 6.76006 59.1198C3.67006 66.4198 7.14011 73.0098 14.5601 75.1398C21.4201 77.1098 26.2701 73.2898 31.0601 69.2398C33.6501 67.0498 34.2801 65.2798 31.7801 62.2598C28.1801 57.8998 25.53 52.8698 24.58 47.1198C23.48 40.4298 25.3101 35.4498 30.1701 32.3498C35.1601 29.1698 41.2301 29.3198 46.1301 32.7298C51.0201 36.1398 52.5601 41.4098 51.0601 48.2398C49.7701 54.1098 46.46 58.8798 43.1 63.6198C41.98 65.1998 41.4201 66.3698 43.1401 67.8298C46.8201 70.9398 50.34 74.1598 55.34 75.1998C63.26 76.8498 69.76 71.8998 69.83 63.9198ZM29.59 43.7998C29.62 48.3798 33.36 56.4798 36.44 59.7298C38.25 61.6398 39.02 60.2198 39.86 59.0598C42.79 55.0098 45.29 50.7398 46.24 45.7298C46.92 42.1598 45.8801 39.1398 43.0601 36.8798C40.3501 34.7098 37.39 34.5298 34.2 36.0398C30.76 37.6698 29.36 40.3498 29.59 43.7998Z" fill="#B4B4B4"/>
<path d="M235.6 31.2902C244.84 28.0102 251.57 29.5202 255.94 35.6402C259.79 41.0202 259.81 49.5502 255.99 54.8202C252 60.3402 245.17 62.4902 238.26 59.9602C236.36 59.2602 235.22 60.0402 233.69 60.4702C229.11 61.7502 227.66 60.6202 227.66 55.9102C227.64 43.7802 227.76 31.6502 227.58 19.5202C227.53 16.2702 228.46 15.1502 231.78 15.1702C234.95 15.1902 235.79 16.4002 235.65 19.3202C235.45 23.2702 235.6 27.2202 235.6 31.2902ZM235.6 44.8902C235.6 51.3302 237.31 53.7402 241.97 53.8702C247.04 54.0102 250.72 50.4202 250.78 45.2702C250.84 40.0402 247.81 36.9302 242.61 36.8602C237.02 36.8002 235.6 38.4202 235.6 44.8902Z" fill="#B4B4B4"/>
<path d="M161.59 37.8202C161.59 31.5002 161.71 25.1702 161.54 18.8602C161.46 15.8902 162.74 15.1402 165.41 15.2302C167.88 15.3202 169.67 15.7302 169.55 18.7902C169.43 21.7802 169.64 24.7802 169.5 27.7702C169.37 30.6902 170.33 30.9502 173.01 30.1502C181.42 27.6402 189.21 31.8502 192.02 40.0602C194.76 48.0602 190.93 56.6902 183.27 60.0102C181.2 60.9102 179.07 61.1302 176.92 60.9402C172.97 60.6002 169.14 59.2502 165.03 60.6002C162.67 61.3802 161.49 59.9102 161.55 57.2702C161.68 50.8002 161.59 44.3102 161.59 37.8202ZM169.53 44.8602C169.52 51.3502 171.27 53.8002 175.97 53.8702C181.1 53.9502 184.71 50.3202 184.7 45.0802C184.7 40.0602 181.38 36.8702 176.15 36.8602C170.93 36.8602 169.53 38.5402 169.53 44.8602Z" fill="#B4B4B4"/>
<path d="M122.66 45.5799C122.66 48.8999 122.67 52.2099 122.66 55.5299C122.64 60.6699 121.17 62.0699 116.56 60.3599C114.43 59.5699 112.99 59.8499 111.07 60.4799C105.02 62.4699 97.9801 59.9599 94.3001 54.7599C90.7901 49.7999 90.6 41.1099 93.9 36.4099C98 30.5699 104.6 27.7699 110.71 30.0699C113.69 31.1999 116.19 29.9699 118.91 29.9799C121.63 29.9899 122.85 30.7399 122.71 33.6499C122.52 37.6099 122.66 41.5999 122.66 45.5799ZM114.76 45.5199C114.76 38.5299 113.62 36.9799 108.39 36.8899C103.01 36.7999 99.59 40.0699 99.59 45.3399C99.58 50.3899 103.42 54.3999 108.42 53.7999C113.24 53.2299 115.46 52.4099 114.76 45.5199Z" fill="#B4B4B4"/>
<path d="M223.66 48.6599C223.66 51.1499 223.57 53.6399 223.68 56.1299C223.8 58.8799 223.67 60.8299 219.89 60.8699C216.03 60.9199 215.54 59.1699 215.68 56.0399C215.86 51.8999 215.72 47.7399 215.72 43.5899C215.71 39.7099 214.87 36.6099 209.96 36.7799C205.24 36.9399 203.68 38.5099 203.65 43.5499C203.63 48.1999 203.5 52.8499 203.69 57.4899C203.82 60.8399 201.76 60.6999 199.48 60.7299C197.24 60.7599 195.63 60.5199 195.68 57.5899C195.8 49.4599 195.82 41.3199 195.68 33.1899C195.61 29.3099 198.39 29.5699 200.39 30.1899C203.49 31.1599 206.09 30.3099 208.97 29.5599C216.63 27.5699 223.42 32.8099 223.63 40.6799C223.7 43.3299 223.64 45.9899 223.64 48.6499C223.64 48.6599 223.65 48.6599 223.66 48.6599Z" fill="#B4B4B4"/>
<path d="M139.8 45.5499C139.8 41.5699 139.89 37.5799 139.77 33.5999C139.69 31.1399 140.41 29.74 143.12 30.04C147 30.47 150.8 30.6599 154.65 29.2699C156.56 28.5799 158.68 29.0899 158.59 32.1199C158.51 34.6299 159.07 36.9399 155 36.9199C148.99 36.8899 148.37 37.89 148.36 44.11C148.35 48.42 148.25 52.7399 148.39 57.0499C148.51 60.8499 146.07 60.6599 143.43 60.7899C140.54 60.9299 139.64 59.74 139.77 56.99C139.93 53.19 139.8 49.3699 139.8 45.5499Z" fill="#B4B4B4"/>
<path d="M127.6 45.0801C127.6 41.6001 127.68 38.1201 127.57 34.6401C127.49 31.9201 127.54 29.9601 131.34 29.9201C135.18 29.8801 135.64 31.5801 135.58 34.7201C135.42 42.1701 135.43 49.6401 135.58 57.0901C135.64 59.9901 134.51 60.8001 131.78 60.7701C129.06 60.7401 127.34 60.3701 127.54 57.0101C127.78 53.0501 127.6 49.0601 127.6 45.0801Z" fill="#B4B4B4"/>
<path d="M136.65 21.2199C136.38 24.2199 134.75 25.9799 131.55 25.9699C127.83 25.9599 126.01 23.5999 126.07 20.2899C126.13 17.2099 128.55 15.4899 131.48 15.6099C134.66 15.7299 136.61 17.6699 136.65 21.2199Z" fill="#B4B4B4"/>
</svg>
