<svg width="624" height="83" viewBox="0 0 624 83" fill="none" xmlns="http://www.w3.org/2000/svg">
<path d="M285.32 20.9045C282.365 29.8198 280.16 36.1879 278.185 42.6214C277.254 45.6258 276.47 48.3037 272.519 48.3364C268.698 48.369 266.412 46.6219 265.269 43.1112C261.611 31.7792 257.888 20.4799 254.361 9.11526C253.561 6.55168 251.373 2.91042 256.141 1.93071C259.913 1.14694 263.669 1.19592 265.024 6.42105C266.771 13.1811 269.09 19.7941 271.506 27.5665C276.225 21.0514 276.193 14.0628 278.887 8.13555C280.193 5.27806 280.601 1.80008 285.043 1.65312C289.696 1.48984 291.035 4.54327 292.227 7.98859C294.382 14.2424 296.522 20.5126 299.428 28.9707C302.057 20.3493 304.539 14.1444 305.763 7.69468C307.037 1.0653 311.462 0.657085 316.001 2.04501C321.276 3.66153 317.341 7.46608 316.557 10.046C313.422 20.3983 310.091 30.7016 306.449 40.8742C305.29 44.1399 304.833 48.516 299.379 48.369C294.334 48.2384 294.268 44.2379 293.043 41.1681C290.659 35.2409 288.471 29.232 285.32 20.9045Z" fill="#B4B4B4"/>
<path d="M194.582 24.4793C194.582 18.6011 194.729 12.7065 194.533 6.82821C194.403 2.89303 196.101 1.57042 199.857 1.65207C203.432 1.73371 205.539 2.94202 205.539 6.82821C205.506 18.2092 205.555 29.6065 205.523 40.9875C205.523 43.4857 205.392 46.2126 202.143 46.5392C199.334 46.8168 196.46 47.6005 194.125 44.4165C188.884 37.2809 183.201 30.4719 176.213 21.6545C176.213 29.4269 176.148 35.1745 176.229 40.9222C176.295 44.9553 174.629 46.7188 170.433 46.8494C165.746 46.98 165.158 44.5144 165.207 40.7425C165.338 30.178 165.142 19.5971 165.322 9.03256C165.371 6.40367 163.705 2.59912 168.31 1.84801C171.951 1.26018 175.233 1.81535 177.682 5.1627C182.597 11.8737 187.708 18.4378 192.737 25.0672C193.358 24.8712 193.978 24.6753 194.582 24.4793Z" fill="#B4B4B4"/>
<path d="M231.158 1.7016C234.963 1.7016 238.767 1.86488 242.556 1.65261C246.572 1.44034 248.45 2.69764 248.45 7.12267C248.45 11.8416 245.985 12.4621 242.262 12.2988C239.012 12.1519 235.747 12.1029 232.497 12.3315C230.064 12.4948 226.064 11.0252 225.982 14.9767C225.884 19.7283 230.293 17.6872 232.873 18.0464C234.996 18.3404 237.2 18.1444 239.372 18.1281C243.388 18.0954 245.266 19.9732 245.299 24.0717C245.332 28.0722 243.764 30.2439 239.616 30.2275C237.722 30.2275 235.763 29.9663 233.934 30.3092C230.946 30.8807 225.623 28.1211 225.868 33.9014C226.113 39.4531 231.305 36.5956 234.326 37.0528C237.249 37.4937 240.286 37.2325 243.258 37.1345C246.491 37.0365 248.287 37.9999 248.369 41.6901C248.45 45.6906 246.67 46.8663 242.98 46.801C235.11 46.654 227.24 46.5561 219.386 46.8336C214.177 47.0132 212.87 44.4987 212.936 39.894C213.083 29.5907 213.213 19.2874 212.887 9.00045C212.691 3.18749 215.026 1.17909 220.561 1.63629C224.088 1.9302 227.631 1.7016 231.158 1.7016Z" fill="#B4B4B4"/>
<path d="M41.4862 52.4667C36.8489 58.9981 37.6001 65.6602 40.7351 72.9264C42.0577 75.9961 39.2166 79.5231 35.6897 81.3029C32.4729 82.9194 29.5991 83.0827 26.709 80.4702C23.8025 77.8576 21.8103 74.6735 23.7534 71.1629C26.9538 65.3336 24.3903 60.0922 24.178 54.4588C23.8514 45.8374 25.3701 37.2649 23.8678 28.2842C23.1494 23.9571 29.2561 19.7607 34.6935 22.2916C40.8003 25.1491 46.1072 26.2595 52.1324 22.3406C56.1492 19.7281 59.4965 22.2916 61.8968 25.443C64.7217 29.1659 64.2645 33.2807 61.3254 36.6771C58.9741 39.3876 55.937 41.3797 52.0182 39.1263C50.6139 38.3099 49.1443 37.5751 47.7074 36.824C44.8826 35.3544 42.0251 34.7993 39.3309 37.0689C36.4571 39.4856 37.3714 42.4247 38.4491 45.2659C39.2655 47.5355 40.3105 49.7399 41.4862 52.4667Z" fill="#B4B4B4"/>
<path d="M338.959 48.3204C334.763 47.6182 329.799 46.7691 325.341 43.7974C322.353 41.8053 321.063 39.6336 322.908 36.4005C324.59 33.4287 326.827 31.8775 330.109 34.5881C330.713 35.0779 331.546 35.5188 332.297 35.5678C336.396 35.7637 342.633 38.3273 343.858 33.9839C345.131 29.4283 338.388 30.408 335.253 29.167C329.064 26.7341 322.745 25.0196 322.304 16.7247C321.929 9.86669 325.455 5.29471 331.023 2.30659C336.232 -0.485591 349.262 1.8004 352.708 5.44166C353.998 6.79693 354.569 8.00524 353.475 9.68707C352.169 11.6955 351.32 14.2754 348.332 14.2917C347.287 14.2917 346.242 13.7855 345.213 13.4753C341.392 12.2833 335.449 10.3076 334.485 14.2101C333.179 19.3862 339.89 17.5574 342.992 18.7657C352.055 22.2927 357.084 28.2689 356.006 35.1759C354.798 42.7197 347.989 48.2714 338.959 48.3204Z" fill="#B4B4B4"/>
<path d="M497.117 29.7699C500.154 33.754 502.93 37.4116 505.706 41.0692C506.833 42.5551 508.711 44.2369 506.866 45.9514C505.053 47.6496 502.571 46.9475 501.052 45.1676C498.407 42.0979 495.729 38.9628 493.688 35.4685C490.684 30.3087 486.145 29.1984 481.132 30.5699C476.282 31.9089 478.911 36.5135 478.323 39.6813C477.784 42.5714 479.662 46.9801 474.176 46.6209C469.392 46.3106 470.975 42.3102 470.926 39.6813C470.763 29.3453 471.057 19.0094 470.779 8.68973C470.632 3.30132 472.771 1.29291 478.013 1.65214C481.801 1.91339 485.638 1.91339 489.443 1.65214C497.591 1.1133 504.073 3.51359 507.045 11.6615C509.576 18.5522 506.686 23.712 497.117 29.7699ZM486.977 24.1365C488.332 24.1365 489.704 24.1202 491.059 24.1365C496.431 24.2182 499.975 22.3404 500.122 16.2662C500.269 9.78374 496.611 7.69369 490.863 7.74268C487.875 7.77533 484.887 7.72635 481.899 7.77533C479.972 7.80799 478.323 7.93862 477.458 10.3389C474.355 18.8461 477.931 24.1365 486.977 24.1365Z" fill="#B4B4B4"/>
<path d="M122.1 1.70192C126.182 1.70192 130.264 1.7509 134.347 1.68559C138.118 1.62027 140.649 2.63264 140.568 7.15564C140.486 11.1725 138.249 12.642 134.82 12.2012C128.076 11.3357 127.244 14.977 127.505 20.4471C127.832 27.501 127.44 34.5876 127.636 41.6415C127.733 45.5767 126.117 46.9156 122.312 46.834C118.655 46.7523 116.646 45.446 116.646 41.6251C116.663 34.2773 116.434 26.9295 116.695 19.6143C116.875 14.6831 115.765 11.695 110.033 12.2501C106.359 12.6094 103.11 12.5767 103.045 7.074C102.98 0.852835 106.931 1.71825 110.687 1.71825C114.475 1.68559 118.296 1.70192 122.1 1.70192Z" fill="#B4B4B4"/>
<path d="M598.665 35.6319C591.676 33.5092 586.973 36.2851 584.295 43.1757C583.381 45.5107 581.569 47.7314 578.679 46.4251C574.858 44.6779 577.927 42.196 578.728 40.3672C583.838 28.725 589.161 17.1644 594.452 5.58745C595.464 3.3831 596.509 0.721547 599.35 0.754204C602.159 0.786861 603.073 3.31778 604.085 5.63643C609.311 17.5236 614.699 29.3454 619.892 41.2653C620.594 42.8818 623.304 45.2004 619.696 46.5231C617.23 47.4211 614.601 46.817 613.85 43.7962C611.874 35.5666 606.176 34.1297 598.665 35.6319ZM599.22 10.0941C597.244 14.0293 595.84 16.7888 594.452 19.5483C589.749 28.9699 589.896 28.9046 600.167 29.2148C606.404 29.3944 607.89 27.7126 604.82 22.1282C602.926 18.7156 601.506 15.058 599.22 10.0941Z" fill="#B4B4B4"/>
<path d="M422.806 43.4385C422.969 45.3979 422.251 46.394 420.667 46.5899C418.953 46.8185 417.075 46.5572 416.699 44.6631C414.446 33.1678 405.596 35.6171 397.742 35.1926C391.945 34.8823 388.337 36.7111 386.998 42.4751C386.279 45.5939 384.254 47.6676 381.185 46.394C377.625 44.9081 380.32 42.2792 381.136 40.3524C386.116 28.6612 391.243 17.0189 396.337 5.36038C397.301 3.1397 398.02 0.543464 401.04 0.396507C403.245 0.282208 404.355 1.84974 405.188 3.69487C410.87 16.2678 416.585 28.8408 422.267 41.4138C422.61 42.1649 422.692 42.9976 422.806 43.4385ZM401.84 10.6835C400.306 12.3163 399.571 12.8062 399.26 13.492C398.166 15.9413 397.252 18.4722 396.24 20.9704C392.909 29.102 393.023 28.9714 401.791 29.2C407.98 29.3633 409.776 27.5182 406.87 21.7869C405.204 18.4885 403.816 15.0432 401.84 10.6835Z" fill="#B4B4B4"/>
<path d="M532.518 26.2424C532.567 5.73378 550.087 -4.99405 566.66 3.54576C569.24 4.86837 572.686 6.40325 570.906 10.1588C569.061 14.0613 566.269 11.1712 564.032 10.1588C554.3 5.70113 548.797 6.61552 543.164 13.8327C537.694 20.8377 537.889 29.5408 543.653 36.1212C548.699 41.8688 556.161 42.4566 565.126 37.7703C567.493 36.5294 570.155 34.2924 572.049 37.8846C573.665 40.9381 570.465 42.0811 568.652 43.4037C561.239 48.8411 553.32 50.0984 545.041 45.5264C536.812 40.9381 531.946 34.2434 532.518 26.2424Z" fill="#B4B4B4"/>
<path d="M431.509 22.7811C432.424 16.8702 428.228 7.64456 433.306 2.99093C437.878 -1.2055 446.842 1.73363 453.847 1.84793C457.145 1.89692 463.285 -0.552361 463.285 4.50948C463.285 10.551 456.933 6.86079 453.471 7.62823C450.875 8.21606 448.034 7.93847 445.34 7.69354C440.164 7.22002 437.453 8.36301 437.453 14.6005C437.453 21.1972 440.882 21.4585 445.699 21.2136C449.503 21.0339 453.308 21.1482 457.112 21.2299C459.545 21.2789 461.57 22.2749 461.603 24.9201C461.635 27.549 459.709 28.6757 457.243 28.741C453.439 28.8226 449.585 29.1329 445.83 28.7247C439.478 28.0389 437.012 30.2432 437.453 36.8563C437.666 40.024 440.017 46.0492 434.71 46.1799C429.06 46.3268 432.016 40.3343 431.64 37.0849C431.134 32.7905 431.509 28.3981 431.509 22.7811Z" fill="#B4B4B4"/>
<path d="M18.2018 52.7934C18.0711 53.2995 18.0876 54.8671 17.3365 55.8141C13.4667 60.631 14.6096 65.154 17.2711 70.0689C19.6224 74.3797 17.3854 77.9393 14.0054 80.6498C10.8867 83.1317 7.32699 83.0174 4.33887 80.4865C1.07317 77.727 -1.16373 74.1674 1.38351 69.8567C4.32265 64.8928 4.20828 60.5004 1.10586 55.5202C-0.837236 52.4178 -0.167799 48.6296 2.70602 45.8537C5.82477 42.8493 9.75997 43.0289 13.3522 44.2862C16.6016 45.4455 18.3324 48.303 18.2018 52.7934Z" fill="#B4B4B4"/>
<path d="M86.8142 23.4673C86.8142 17.7849 86.9285 12.0863 86.7652 6.40397C86.6672 2.79536 88.3818 1.68502 91.7128 1.70135C94.9785 1.71768 96.7746 2.73005 96.7419 6.35498C96.6439 18.2748 96.6439 30.1946 96.7419 42.1144C96.7746 45.6904 95.0929 46.8007 91.7782 46.8007C88.4798 46.8007 86.7163 45.772 86.7979 42.1634C86.9122 35.9259 86.8142 29.6884 86.8142 23.4673Z" fill="#B2B2B2"/>
<path d="M10.2008 0.0522461C14.6911 1.27689 18.3488 3.82414 18.0222 8.82066C17.6956 13.8498 15.5075 18.7647 9.38434 18.5851C3.78366 18.4218 0.436311 14.5846 0.403653 9.0166C0.354668 2.94239 4.87767 0.982972 10.2008 0.0522461Z" fill="#B4B4B4"/>
<path d="M41.0618 9.37688C39.8372 13.5733 38.5472 18.4065 32.8975 18.6025C27.2969 18.7984 23.6719 15.3858 23.329 9.76876C23.0025 4.59262 25.664 0.6901 31.1014 0.314544C36.8981 -0.0936692 39.7229 3.79252 41.0618 9.37688Z" fill="#B4B4B4"/>
<path d="M9.53141 21.2793C14.1034 22.6835 18.2672 24.8389 18.0875 30.3906C17.9079 35.8607 14.6096 39.9918 9.17223 39.8938C3.80015 39.7958 0.24047 35.6484 0.534384 30.1783C0.779311 25.1655 4.35527 22.161 9.53141 21.2793Z" fill="#B4B4B4"/>
<path d="M469.555 70.8034C473.245 69.5951 471.4 64.0108 475.384 64.4679C477.997 64.7782 477.736 68.3051 479.009 70.3462C481.573 70.085 480.528 67.1132 482.177 66.3457C483.091 65.9375 484.169 65.268 485.002 65.464C486.243 65.7579 486.079 67.0152 485.769 68.1255C485.328 69.6767 485.214 71.3586 484.561 72.8118C483.303 75.604 484.055 80.0617 480.07 80.6985C475.858 81.368 477.801 75.751 474.584 74.412C472.347 75.8979 474.078 82.0701 468.787 80.4372C466.583 79.7514 462.974 67.3418 464.215 65.4803C464.575 64.9415 465.571 64.3373 466.044 64.4843C468.984 65.415 467.955 68.6807 469.555 70.8034Z" fill="#B4B4B4"/>
<path d="M45.9276 73.0895C46.3031 67.4235 49.8791 64.0108 54.745 64.3537C59.7415 64.7129 63.9054 68.1909 63.6605 74.1018C63.4646 79.2616 59.7088 82.2824 55.1369 82.2008C49.9281 82.0865 46.0419 79.033 45.9276 73.0895Z" fill="#B4B4B4"/>
<path d="M54.9245 1.16225C60.5905 0.884664 63.5951 4.29732 63.2359 9.47347C62.9256 13.9312 61.211 19.042 55.1531 18.6174C49.8301 18.2419 45.9277 15.3681 46.0909 9.34284C46.2379 3.90544 49.0463 0.900992 54.9245 1.16225Z" fill="#B4B4B4"/>
<path d="M45.895 52.4841C46.4665 46.0997 49.5361 43.3891 55.1041 43.7157C60.2313 44.0096 63.4971 47.1937 63.2196 51.9779C62.9583 56.5172 61.0968 61.3342 54.9899 61.1872C48.9974 61.0402 46.6461 57.1214 45.895 52.4841Z" fill="#B4B4B4"/>
<path d="M385.92 81.1887C380.369 81.0744 377.413 78.2659 377.494 72.6816C377.576 66.9829 381.675 64.599 386.394 64.0438C388.712 63.7662 393.056 64.5173 390.95 69.1383C390.313 70.5262 389.578 70.9181 391.39 71.9141C394.525 73.645 393.693 76.5188 392.419 78.9191C391.08 81.4173 388.369 81.1887 385.92 81.1887ZM383.961 74.8533C383.732 74.4451 383.487 74.0532 383.258 73.645C383.046 73.7919 382.671 73.9389 382.671 74.0858C382.671 74.5104 382.818 74.9513 382.899 75.3758C383.259 75.2125 383.602 75.0329 383.961 74.8533Z" fill="#B4B4B4"/>
<path d="M534.477 72.2402C533.66 66.7702 534.313 62.6064 541.678 63.5698C545.009 64.0106 547.834 63.978 545.923 68.599C545.564 69.4644 545.989 70.64 545.989 71.685C545.972 75.5549 550.071 80.8454 541.466 81.3352C533.807 81.7761 533.873 77.547 534.477 72.2402Z" fill="#B4B4B4"/>
<path d="M242.311 73.4004C242.278 63.8646 243.731 62.4603 251.079 63.6523C253.692 64.0768 255.406 64.8769 254.035 67.7671C253.235 69.4489 254.018 70.9021 253.969 72.437C253.871 75.8007 257.464 80.6993 249.92 81.3034C242.703 81.8912 241.429 78.5112 242.311 73.4004Z" fill="#B4B4B4"/>
<path d="M121.561 74.184C121.643 69.9549 120.974 66.1177 125.039 64.2889C128.436 62.754 131.342 64.4195 134.069 66.2483C135.424 67.1627 135.947 79.5071 134.738 80.4541C133.759 81.2216 132.583 81.0746 131.799 80.2909C129.317 77.8416 128.55 76.8292 124.386 79.9316C120.565 82.7565 123.374 75.4739 121.561 74.184Z" fill="#B4B4B4"/>
<path d="M598.958 63.6522C601.342 64.0441 606.78 63.7339 604.445 67.3425C601.506 71.8981 610.682 79.7685 600.085 81.1891C594.337 81.9565 592.067 79.4256 593.047 73.9392C593.798 69.9714 589.978 63.3257 598.958 63.6522Z" fill="#B4B4B4"/>
<path d="M522.949 24.6747C522.949 30.0957 522.981 35.5331 522.916 40.9542C522.9 42.8157 523.03 45.1343 520.402 45.2649C517.691 45.3956 517.675 43.0932 517.675 41.1991C517.626 29.8018 517.642 18.4045 517.675 7.00721C517.675 5.08044 517.822 2.87609 520.565 3.15367C523.21 3.41493 522.916 5.74991 522.933 7.56238C522.998 13.2774 522.965 18.976 522.949 24.6747Z" fill="#B2B2B2"/>
<path d="M198.387 73.7099C197.669 68.844 198.126 63.7822 203.857 64.1088C211.646 64.5496 209.425 72.224 210.078 76.7144C210.748 81.3517 205.882 81.1884 202.355 81.1394C196.379 81.0578 196.852 77.5145 198.387 73.7099Z" fill="#B4B4B4"/>
<path d="M329.244 81.3196C321.341 81.0257 318.81 78.1518 318.712 72.4695C318.597 66.4769 322.043 63.5705 327.17 63.9787C332.036 64.3706 335.824 68.0771 335.971 73.1716C336.102 78.5764 332.787 81.6135 329.244 81.3196ZM331.366 73.4982C331.285 70.6897 329.505 69.0732 327.072 68.5343C324.215 67.8975 323.447 69.9223 323.415 72.3389C323.382 74.9841 324.084 77.1721 327.121 77.4824C329.913 77.7926 330.485 75.4413 331.366 73.4982Z" fill="#B4B4B4"/>
<path d="M610.944 80.0792C610.944 76.8951 611.107 73.6947 610.895 70.527C610.601 66.1346 611.303 63.0485 616.854 63.6527C622.128 64.2242 624.855 66.5592 623.761 72.1109C623.369 74.1356 621.655 75.9644 623.059 78.2341C623.68 79.2464 623.549 80.5364 622.243 80.7323C621.377 80.863 619.924 80.3894 619.5 79.7036C616.577 75.0663 614.324 75.8011 612.544 82.4631C612.005 81.663 611.466 80.8793 610.944 80.0792Z" fill="#B4B4B4"/>
<path d="M452.1 76.0935C453.879 76.42 455.741 76.5017 457.39 77.1385C458.86 77.6937 459.251 79.4898 457.961 80.3225C455.332 82.0044 452.214 81.1716 449.307 81.0247C446.483 80.8777 445.796 78.657 446.074 76.4037C446.564 72.3542 443.837 67.2434 448.426 64.5329C451.283 62.8347 455.153 62.5898 458.076 65.5942C454.826 68.2231 460.182 75.8812 452.1 76.0935Z" fill="#B4B4B4"/>
<path d="M492.023 74.82C491.778 73.9056 491.631 72.5503 491.092 71.391C489.786 68.6315 491.043 66.7211 493.003 65.0882C494.782 63.6023 496.921 63.1451 499.011 64.2555C501.804 65.7577 501.934 67.5048 499.583 69.9051C498.162 71.3584 500.513 71.8972 501.281 72.7136C503.175 74.7221 503.877 76.9427 502.032 79.1634C499.599 82.1025 496.137 81.4167 493.051 80.7636C489.083 79.9635 490.831 77.4162 492.023 74.82Z" fill="#B4B4B4"/>
<path d="M572.18 71.9968C572.425 67.98 571.363 63.2447 577.405 63.8652C582.793 64.4204 587.545 66.4941 587.496 73.0745C587.447 78.8221 583.707 80.9122 578.482 81.1735C570.922 81.549 572.866 75.736 572.18 71.9968ZM579.789 77.4505C582.401 76.8137 583.136 74.9523 583.054 72.5683C582.973 69.9068 581.275 68.3229 578.94 68.5842C575.837 68.9271 576.866 71.8335 576.751 73.8093C576.653 75.8504 577.111 77.6628 579.789 77.4505Z" fill="#B4B4B4"/>
<path d="M435.183 71.3095C438.155 64.1577 440.523 63.4392 440.898 68.5174C441.192 72.3872 442.482 76.7143 439.739 80.2086C438.514 81.7761 436.751 80.5025 435.64 79.2289C434.105 77.4654 433.583 74.7712 430.742 74.0691C428.374 75.5386 430.856 78.8533 427.933 80.6331C425.157 75.9795 426.905 70.9666 426.643 66.264C426.529 64.076 428.439 63.6351 429.958 65.0884C431.689 66.7212 433.06 68.7296 435.183 71.3095Z" fill="#B4B4B4"/>
<path d="M372.564 72.7797C372.482 78.4293 369.738 81.1072 364.04 81.2215C358.717 81.3195 355.549 78.7069 355.337 73.7594C355.108 68.0934 359.174 64.5174 364.22 63.9786C369.755 63.3908 372.172 67.5709 372.564 72.7797ZM368.906 72.796C368.89 70.1508 367.698 68.371 365.167 68.42C362.162 68.4689 360.17 70.3957 359.811 73.3512C359.501 75.8494 361.068 77.5149 363.55 77.5313C366.636 77.5639 368.4 75.7025 368.906 72.796Z" fill="#B4B4B4"/>
<path d="M99.5179 78.2985C99.3219 81.1723 97.7381 81.5805 95.893 79.8987C94.1132 78.2821 92.3986 77.58 90.0636 78.0699C88.1042 78.4781 87.1408 82.3969 84.7895 80.2416C82.4382 78.0535 85.0833 75.7186 86.1284 73.7918C87.9408 70.4771 87.2062 64.0927 92.1864 64.6152C96.0726 65.0234 96.5297 70.8527 98.0483 74.5103C98.5708 75.7512 99.028 77.0249 99.5179 78.2985Z" fill="#B4B4B4"/>
<path d="M569.534 81.7918C562.791 79.9467 558.66 75.2115 554.137 80.6325C553.141 81.8245 551.051 80.5999 551.704 78.2322C551.851 77.7097 552.063 77.2035 552.324 76.73C554.692 72.6316 555.084 64.255 558.97 64.9082C565.452 66.0185 564.571 74.9175 569.534 81.7918Z" fill="#B4B4B4"/>
<path d="M303.412 73.9879C301.437 75.7351 303.412 78.9028 300.653 80.8622C297.469 76.127 299.02 71.0651 299.33 66.3625C299.542 63.2274 301.845 64.2561 303.298 65.8727C305.225 68.0117 306.972 70.3303 308.784 72.5673C311.642 70.4446 309.144 67.1953 311.626 65.6767C313.765 66.3298 313.487 68.2076 313.291 69.6935C312.834 73.3348 315.397 78.5436 311.789 80.2744C307.543 82.3155 307.054 75.4248 303.412 73.9879Z" fill="#B4B4B4"/>
<path d="M267.358 81.1567C261.839 81.5159 258.933 78.2502 258.982 73.4333C259.047 68.0286 262.819 64.6812 268.126 63.8485C270.738 63.4403 273.368 65.1221 273.368 67.7836C273.368 70.6248 270.494 69.2369 268.828 69.3185C266.167 69.4328 263.766 70.0696 263.652 73.1557C263.554 75.9806 265.873 76.3398 268.159 76.6827C269.987 76.9603 273.367 74.9682 273.253 78.4135C273.139 81.369 269.742 81.0424 267.358 81.1567Z" fill="#B4B4B4"/>
<path d="M157.305 81.1555C153.369 80.9759 150.773 78.0857 150.773 72.8932C150.773 67.7987 153.614 64.729 158.431 63.8472C160.88 63.39 163.95 64.3861 164.391 66.9333C165.028 70.5583 161.697 69.1867 159.819 69.3173C157.468 69.4643 155.28 69.7908 155.508 72.8443C155.704 75.4732 157.452 76.4202 159.982 76.5345C161.648 76.5998 164.914 73.7423 164.538 78.1347C164.277 81.1718 161.191 81.1555 157.305 81.1555Z" fill="#B4B4B4"/>
<path d="M170.612 81.2208C169.812 74.4118 173.715 70.199 176.066 65.5617C177.258 63.2267 179.136 63.8799 180.23 66.1822C181.389 68.6315 182.712 71.0154 183.708 73.5463C184.557 75.718 186.696 78.3306 185.03 80.241C182.973 82.5923 181.405 79.343 179.707 78.3959C176.18 76.4365 173.96 80.1268 170.612 81.2208Z" fill="#B4B4B4"/>
<path d="M291.705 82.1198C285.157 73.2697 285.157 73.2697 280.275 81.0584C279.066 75.1148 279.327 69.955 279.981 64.7136C284.177 64.289 281.369 70.8204 285.794 69.8897C288.863 69.2529 287.916 64.8605 291.851 64.4033C292.978 69.8081 292.766 75.0985 291.705 82.1198Z" fill="#B4B4B4"/>
<path d="M110.85 69.0239C112.303 70.869 115.879 69.3994 115.797 72.5508C115.732 74.6899 113.658 74.5266 112.124 74.8205C111.601 74.9185 111.128 75.2287 110.605 75.3104C107.993 75.7839 109.772 83.4746 105.821 79.4741C102.8 76.4207 103.437 69.9056 105.772 65.7582C107.829 62.0843 112.483 63.5702 116.14 64.2396C116.614 64.3213 117.349 65.5296 117.234 66.0521C116.467 69.5464 113.038 67.2931 110.85 69.0239Z" fill="#B4B4B4"/>
<path d="M404.404 80.9275C401.792 77.3026 402.004 73.0082 399.081 69.8895C397.938 68.6811 395.439 66.1176 398.33 64.4847C400.42 63.2927 401.253 66.1012 402.347 67.5545C402.804 68.175 403.473 68.6322 404.388 69.4812C405.368 67.9953 406.249 66.7217 407.082 65.4154C407.931 64.0928 409.188 63.4397 410.495 64.2561C411.899 65.1379 411.54 66.6074 410.739 67.8157C408.029 71.7999 405.988 76.0616 404.404 80.9275Z" fill="#B4B4B4"/>
<path d="M230.881 63.6348C233.297 63.8144 235.845 63.0796 237.102 65.3003C238.686 68.1251 235.24 67.7659 234.326 69.0558C232.628 71.4398 233.608 74.281 233.363 76.9099C233.216 78.5101 233.395 80.5021 231.289 80.6981C229.036 80.9267 229.068 78.9346 228.905 77.3344C228.513 73.6278 229.166 70.3948 225.362 66.8678C222.814 64.5165 228.758 64.3042 230.881 63.6348Z" fill="#B4B4B4"/>
<path d="M517.985 72.2572C517.985 71.4408 517.871 70.6081 518.001 69.8243C518.361 67.9138 516.842 64.6318 519.961 64.5665C522.508 64.5175 522.394 67.5546 522.639 69.7263C522.916 72.1593 521.316 75.425 525.219 76.519C527.162 77.0741 530.313 76.7966 529.431 79.9643C528.844 82.087 526.117 81.1563 524.353 81.1236C521.855 81.0746 518.508 82.1197 518.1 77.9559C517.92 76.0781 518.067 74.1677 518.067 72.2572C518.051 72.2572 518.018 72.2572 517.985 72.2572Z" fill="#B4B4B4"/>
<path d="M340.119 72.8767C340.119 71.5214 340.053 70.1824 340.135 68.8272C340.233 67.2107 340.429 65.3492 342.601 65.4635C344.217 65.5452 344.674 67.08 344.625 68.468C344.478 72.9746 344.217 77.4323 350.847 77.0731C351.271 77.0568 352.088 78.1998 352.137 78.8529C352.218 79.9959 351.353 80.6 350.226 81.0246C343.76 83.4739 340.07 80.5347 340.119 72.8767Z" fill="#B4B4B4"/>
<path d="M145.434 72.1094C145.434 74.3791 145.483 76.012 145.417 77.6448C145.368 79.0327 145.156 80.5513 143.442 80.6983C141.139 80.8942 141.009 79.0491 140.894 77.4162C140.813 76.0609 140.715 74.6894 140.878 73.3504C141.221 70.297 139.523 64.9902 143.213 64.9086C147.654 64.8106 144.307 70.101 145.434 72.1094Z" fill="#B4B4B4"/>
<path d="M193.521 67.3101C192.737 69.2369 192.46 71.9311 189.994 72.078C187.757 72.2087 188.394 69.89 188.329 68.4368C188.247 66.461 188.704 64.5506 190.958 64.2567C192.999 63.9791 193.57 65.5466 193.521 67.3101Z" fill="#B4B4B4"/>
<path d="M383.961 74.8538C383.585 75.0334 383.242 75.213 382.899 75.3763C382.818 74.9518 382.654 74.5109 382.671 74.0864C382.671 73.9394 383.046 73.7925 383.258 73.6455C383.503 74.0537 383.732 74.4456 383.961 74.8538Z" fill="#FEFEFE"/>
</svg>
