<svg width="66" height="85" viewBox="0 0 266 285" fill="none" xmlns="http://www.w3.org/2000/svg">
<path d="M265.458 53.7285C261.689 86.928 257.943 120.345 254.065 153.741C251.647 174.567 248.793 195.349 246.593 216.197C246.092 221.011 244.763 223.93 240.341 226.348C206.379 244.887 172.504 263.621 138.76 282.552C134.272 285.057 130.939 284.643 126.757 282.312C93.2524 263.6 59.7044 244.93 25.9821 226.588C21.1678 223.974 19.4033 220.684 18.8151 215.63C12.6937 161.997 6.52867 108.386 0.145837 54.796C-0.573049 48.6528 1.30041 45.8426 7.22577 43.7731C47.2002 29.831 87.0656 15.5405 126.909 1.18454C131.266 -0.383936 134.948 -0.405721 139.348 1.18454C179.083 15.5187 218.883 29.6567 258.727 43.6423C263.803 45.4069 267.419 47.3675 265.458 53.7285ZM131.637 33.0116C104.406 94.1168 77.2409 155.091 49.9014 216.414C79.3975 220.031 79.3975 220.031 89.6362 194.347C91.1175 190.644 92.8821 187.027 93.9931 183.215C95.6487 177.486 98.8292 175.286 105.038 175.547C117.346 176.048 129.698 175.699 142.028 175.699C167.733 175.699 167.733 175.699 177.471 199.989C184.529 217.569 184.529 217.569 203.525 217.417C215.485 217.329 215.528 217.308 210.627 206.285C186.206 151.344 161.786 96.4042 137.279 41.4857C136.037 38.6537 135.667 35.1029 131.637 33.0116Z" fill="#FCFDFE"/>
<path d="M132.595 91.481C140.633 110.847 147.757 127.708 154.641 144.657C156.689 149.689 152.985 149.907 149.5 149.907C137.932 149.907 126.343 149.776 114.775 149.972C109.002 150.059 109.199 147.641 111.007 143.393C117.912 127.098 124.6 110.738 132.595 91.481Z" fill="#F8F9FE"/>
</svg>
