<svg width="20" height="11" viewBox="0 0 220 311" fill="none" xmlns="http://www.w3.org/2000/svg">
<path d="M108.177 311C103.85 308.784 99.0605 308.037 94.4493 306.747C70.4351 300.018 46.3885 293.354 22.3418 286.747C20.5152 286.244 19.7277 285.465 19.5653 283.517C17.3328 257.413 15.0434 231.318 12.7134 205.223C9.97753 174.599 7.1848 143.974 4.43267 113.35C2.97948 97.2301 1.55065 81.1103 0.12993 64.9905C-0.202924 61.1919 -0.162332 61.1919 3.54777 61.1919C74.5105 61.1919 145.473 61.1919 216.436 61.1919C220.162 61.1919 220.211 61.2 219.87 64.9743C217.321 93.2854 214.739 121.588 212.206 149.891C210.079 173.665 208.025 197.447 205.923 221.229C204.088 241.984 202.196 262.738 200.427 283.492C200.24 285.668 199.201 286.276 197.35 286.788C169.017 294.596 140.708 302.469 112.391 310.326C111.936 310.456 111.352 310.318 111.222 311C110.207 311 109.192 311 108.177 311ZM110.004 107.059C110.004 107.084 110.004 107.1 110.004 107.124C108.786 107.124 107.577 107.124 106.359 107.124C85.5028 107.124 64.6467 107.165 43.7987 107.076C41.3713 107.068 40.7949 107.587 41.1034 110.103C41.9639 117.124 42.6621 124.186 43.0275 131.247C43.1817 134.202 44.1072 134.802 46.9243 134.794C79.9255 134.705 112.927 134.786 145.928 134.746C148.063 134.746 148.867 134.957 148.55 137.513C147.649 144.835 146.959 152.205 146.602 159.575C146.456 162.497 145.408 162.919 142.851 162.919C111.465 162.862 80.0879 162.927 48.7022 162.878C46.4778 162.878 45.7877 163.235 46.0637 165.678C46.8999 172.91 47.5494 180.175 47.9715 187.439C48.1177 190.004 48.962 190.572 51.3813 190.556C69.5015 190.459 87.6217 190.499 105.742 190.507C117.587 190.515 129.431 190.58 141.268 190.548C143.111 190.54 143.89 190.718 143.655 193.007C142.599 203.267 141.755 213.551 140.943 223.835C140.805 225.612 140.229 226.456 138.418 226.919C129.423 229.248 120.469 231.732 111.506 234.183C110.394 234.484 109.371 234.476 108.242 234.167C99.2797 231.716 90.317 229.265 81.3137 226.96C79.479 226.489 79.0081 225.645 78.8782 223.867C78.4723 218.12 77.7173 212.39 77.3682 206.643C77.2383 204.525 76.3778 204.241 74.5836 204.257C67.2933 204.338 60.003 204.419 52.7208 204.225C50.0174 204.152 49.579 205.061 49.8063 207.504C50.9835 219.89 52.0713 232.284 53.0455 244.686C53.2323 247.008 54.2227 247.868 56.366 248.453C73.6094 253.152 90.8285 257.965 108.048 262.762C109.135 263.063 110.207 263.266 111.327 262.949C129.131 257.998 146.935 253.039 164.754 248.128C166.029 247.779 166.508 247.235 166.622 245.888C167.117 239.638 167.758 233.396 168.31 227.154C170.007 208.015 171.688 188.868 173.384 169.729C175.17 149.583 176.956 129.429 178.824 109.283C178.986 107.522 178.613 107.011 176.818 107.019C154.55 107.076 132.273 107.059 110.004 107.059Z" fill="white"/>
<path d="M108.478 0.0404119C113.341 0.0404119 118.196 0.113462 123.05 -0.00017171C124.771 -0.0407553 125.307 0.454364 125.218 2.17511C125.047 5.38933 126.306 9.63437 124.706 11.5661C123.05 13.571 118.65 12.0531 115.452 12.1668C112.724 12.2642 109.988 12.1992 107.252 12.183C106.391 12.1749 105.709 12.1587 105.709 13.4005C105.709 14.6424 106.391 14.618 107.252 14.618C112.513 14.6099 117.782 14.683 123.042 14.5693C124.747 14.5369 125.242 15.0076 125.218 16.7284C125.129 24.6178 125.129 32.5154 125.218 40.4129C125.234 42.1256 124.771 42.5963 123.05 42.5882C113.333 42.5071 103.615 42.5071 93.8972 42.5882C92.1761 42.6045 91.6484 42.1337 91.7296 40.4129C91.8676 37.4828 91.8433 34.5446 91.7378 31.6144C91.6809 30.1372 92.1599 29.7395 93.605 29.7638C98.7683 29.845 103.932 29.8206 109.095 29.7719C109.923 29.7638 111.23 30.4132 111.23 28.5788C111.23 26.7525 109.923 27.4019 109.095 27.3937C104.037 27.345 98.9712 27.2963 93.9135 27.41C92.2086 27.4506 91.7134 26.9717 91.7378 25.2509C91.8352 17.5563 91.8271 9.86975 91.7378 2.17511C91.7134 0.462481 92.1843 -0.0407553 93.9054 -0.00017171C98.7602 0.121579 103.623 0.0404119 108.478 0.0404119Z" fill="white"/>
<path d="M148.574 42.5557C143.712 42.5557 138.857 42.4827 134.002 42.5963C132.289 42.6369 131.745 42.1499 131.834 40.4292C131.972 37.499 131.948 34.5608 131.842 31.6306C131.786 30.1615 132.256 29.7557 133.71 29.78C138.873 29.8612 144.036 29.8368 149.2 29.7881C150.028 29.78 151.335 30.4294 151.343 28.6031C151.343 26.7768 150.036 27.4181 149.208 27.4099C144.15 27.3612 139.084 27.3125 134.026 27.4262C132.321 27.4668 131.826 27.0041 131.842 25.2671C131.94 17.5725 131.932 9.88596 131.842 2.19131C131.826 0.486803 132.281 -0.000199431 134.01 0.016034C143.728 0.0972011 153.445 0.0972011 163.163 0.016034C164.876 -0.000199431 165.42 0.462453 165.331 2.1832C165.16 5.39742 166.419 9.63434 164.819 11.5742C163.163 13.5791 158.763 12.0612 155.564 12.1749C152.837 12.2723 150.101 12.2073 147.365 12.1911C146.504 12.183 145.822 12.1668 145.814 13.4086C145.814 14.6505 146.488 14.6342 147.357 14.6342C152.617 14.6261 157.886 14.6992 163.147 14.5855C164.852 14.5531 165.347 15.0157 165.331 16.7446C165.241 24.634 165.241 32.5316 165.331 40.4292C165.347 42.1337 164.892 42.645 163.163 42.6044C158.3 42.4827 153.437 42.5557 148.574 42.5557Z" fill="white"/>
<path d="M51.6816 20.8438C51.6816 14.5696 51.7303 8.2954 51.6492 2.02118C51.6248 0.438423 52.0551 -0.00799576 53.6544 0.000120951C63.4695 0.0731714 73.2928 0.0731714 83.1079 0.000120951C84.6829 -0.00799576 85.1943 0.389723 85.1294 2.00495C85.0076 5.34092 85.0076 8.685 85.1294 12.021C85.1862 13.6037 84.7234 14.0745 83.116 14.042C77.9527 13.9446 72.7894 14.0664 67.6343 13.969C66.0512 13.9365 65.5559 14.3748 65.6128 15.9819C65.7346 19.3179 65.7346 22.662 65.6128 25.998C65.5559 27.5888 66.0349 28.0434 67.6261 28.0109C72.7894 27.9135 77.9527 28.0352 83.1079 27.9378C84.6991 27.9054 85.1781 28.3599 85.1212 29.9508C84.9995 33.3842 85.0238 36.8338 85.1131 40.2671C85.1456 41.6064 84.7316 41.9716 83.4083 41.9635C73.3902 41.9148 63.3721 41.8905 53.3459 41.9798C51.6492 41.996 51.6492 41.2006 51.6573 39.9587C51.706 33.5952 51.6816 27.2236 51.6816 20.8438Z" fill="white"/>
</svg>
