<svg width="22" height="12" viewBox="0 0 222 312" fill="none" xmlns="http://www.w3.org/2000/svg">
<path d="M109.748 311.012C101.41 308.05 92.7774 306.11 84.2676 303.748C63.7671 298.043 43.242 292.41 22.6924 286.867C20.5138 286.282 19.8585 285.292 19.6701 283.174C17.3195 256.277 14.8624 229.389 12.4544 202.492C10.5297 180.936 8.66229 159.371 6.72117 137.823C4.58348 114.043 2.42123 90.2711 0.218017 66.5072C-0.273406 61.2074 -0.37169 61.2236 4.84558 61.2236C75.9216 61.2236 146.998 61.2155 218.074 61.2398C222.382 61.2398 222.218 60.4445 221.809 65.0544C219.704 88.8264 217.484 112.59 215.338 136.362C213.602 155.597 211.947 174.841 210.211 194.084C208.27 215.64 206.28 237.188 204.33 258.745C203.601 266.804 202.856 274.863 202.283 282.931C202.127 285.162 201.439 286.209 199.113 286.842C170.619 294.577 142.157 302.442 113.687 310.29C113.155 310.436 112.402 310.192 112.197 311.028C111.378 311.012 110.559 311.012 109.748 311.012ZM111.034 107.071C111.034 107.096 111.034 107.12 111.034 107.136C88.6658 107.136 66.2979 107.177 43.93 107.079C41.5384 107.071 41.088 107.688 41.3091 109.985C43.7498 135.559 46.1496 161.141 48.3446 186.739C48.6067 189.75 49.3521 190.545 52.4152 190.537C82.2364 190.456 112.058 190.586 141.879 190.529C144.672 190.521 145.171 191.13 144.86 193.889C143.762 203.839 142.96 213.822 142.206 223.813C142.059 225.801 141.256 226.605 139.438 227.068C130.461 229.381 121.509 231.775 112.549 234.169C111.542 234.437 110.591 234.534 109.551 234.25C100.304 231.775 91.0574 229.299 81.7777 226.913C80.2379 226.516 79.6974 225.866 79.5827 224.276C79.1322 218.221 78.4524 212.191 77.961 206.144C77.8464 204.716 77.3631 204.261 75.9216 204.269C68.0589 204.326 60.1961 204.334 52.3252 204.261C50.5642 204.245 50.0155 204.773 50.1793 206.534C51.3833 219.528 52.5545 232.522 53.6356 245.524C53.783 247.317 54.7249 247.845 56.232 248.259C73.8085 253.08 91.385 257.941 108.953 262.795C110.051 263.095 111.124 263.241 112.254 262.933C130.117 257.998 147.989 253.071 165.868 248.194C167.375 247.78 167.899 247.098 168.039 245.515C170.381 219.219 172.814 192.931 175.213 166.643C175.557 162.861 175.533 162.861 171.716 162.861C140.159 162.877 108.593 162.877 77.0355 162.967C74.9224 162.975 74.0378 162.602 73.874 160.264C73.3662 153 72.5881 145.753 71.8592 138.513C71.4742 134.69 71.4169 134.69 75.2746 134.69C108.47 134.715 141.666 134.731 174.861 134.772C176.647 134.772 178.178 134.991 178.35 132.329C178.842 124.764 179.563 117.208 180.357 109.66C180.562 107.721 180.316 107.006 178.121 107.015C155.77 107.104 133.402 107.071 111.034 107.071Z" fill="white"/>
<path d="M146.048 22.234C143.05 26.7952 140.052 31.3483 136.858 36.218C133.647 31.3727 130.56 26.714 126.948 21.26C126.948 27.8909 126.808 33.5965 127.013 39.294C127.103 41.672 126.325 42.1752 124.13 42.0291C121.182 41.8343 118.217 41.9317 115.252 42.0047C113.827 42.0372 113.049 41.8992 113.057 40.0975C113.139 27.3552 113.122 14.613 113.073 1.87073C113.065 0.344908 113.638 0.0121492 115.039 0.0446135C118.708 0.125774 122.386 0.142006 126.055 0.0364974C127.488 -0.004083 128.217 0.523462 128.913 1.69218C131.493 6.02616 134.196 10.2952 136.964 14.7834C139.749 10.2709 142.427 5.9937 145.024 1.67595C145.638 0.653319 146.22 -0.004083 147.587 0.0364974C151.363 0.142006 155.139 0.142006 158.915 0.0364974C160.413 -0.004083 160.782 0.482882 160.774 1.91943C160.725 14.6617 160.725 27.4039 160.774 40.1462C160.782 41.5989 160.381 42.0615 158.898 42.0129C155.532 41.9073 152.158 41.8911 148.799 42.021C147.03 42.094 146.572 41.4934 146.604 39.8053C146.703 33.9779 146.645 28.1587 146.645 22.3314C146.441 22.2989 146.244 22.2664 146.048 22.234Z" fill="white"/>
<path d="M61.744 21.0166C61.744 27.2822 61.6866 33.5559 61.7849 39.8215C61.8095 41.5503 61.3017 42.0859 59.5571 42.021C56.2974 41.8911 53.0212 41.8749 49.7614 42.0291C47.9514 42.1103 47.5337 41.4691 47.5992 39.8053C47.722 36.6725 47.4845 33.5316 47.6893 30.4069C47.8285 28.2967 47.0013 27.8747 45.1175 27.9802C42.6768 28.1263 40.2115 28.1506 37.7789 27.9721C35.5184 27.8097 34.511 28.3129 34.7239 30.8452C34.986 33.8562 34.7075 36.9079 34.814 39.9352C34.8714 41.4934 34.4291 42.0697 32.7828 42.0129C29.3183 41.8993 25.8456 41.9155 22.381 42.0048C20.9395 42.0372 20.4399 41.6395 20.4481 40.1462C20.5054 27.4039 20.4973 14.6698 20.4481 1.92757C20.4399 0.466672 20.8822 0.00405525 22.3565 0.0365196C25.821 0.125796 29.2937 0.142029 32.7582 0.0284035C34.2898 -0.020293 34.6502 0.515368 34.6093 1.93568C34.511 5.27139 34.6175 8.6071 34.5601 11.9428C34.5437 13.2333 34.7239 14.0368 36.3538 13.9799C39.5153 13.8744 42.685 13.8744 45.8383 13.9799C47.4354 14.0286 47.6811 13.282 47.6565 11.9672C47.5992 8.72884 47.7794 5.49052 47.5828 2.26032C47.46 0.215073 48.3036 -0.0527573 50.0481 0.0202874C53.1031 0.150145 56.1745 0.174493 59.2295 0.0121713C61.2198 -0.0933377 61.8422 0.466672 61.7931 2.49569C61.6539 8.68014 61.744 14.8484 61.744 21.0166Z" fill="white"/>
<path d="M87.3226 0.0689245C93.0395 0.0689245 98.7646 0.174434 104.473 0.012112C106.586 -0.0447006 107.012 0.669514 106.922 2.56056C106.775 5.58786 106.734 8.6395 106.939 11.6587C107.078 13.7851 106.234 14.1747 104.35 14.0692C101.705 13.9312 99.0348 14.1422 96.3894 13.9961C94.7185 13.9068 94.3745 14.5074 94.3909 16.0414C94.4646 23.9302 94.35 31.8271 94.4728 39.716C94.5056 41.6557 93.9241 42.094 92.0812 42.0128C88.8215 41.8586 85.5453 41.8748 82.2773 42.0128C80.6065 42.0859 80.2625 41.4934 80.2789 39.9676C80.3526 32.1761 80.2216 24.3847 80.369 16.5933C80.4099 14.41 79.7711 13.8338 77.6662 13.9961C75.2336 14.1909 72.7519 13.8825 70.3194 14.0854C68.1735 14.2721 67.7886 13.3955 67.8787 11.5288C68.0179 8.59892 68.1162 5.64467 67.8541 2.731C67.633 0.279942 68.6322 -0.0447006 70.7617 0.012112C76.2902 0.166317 81.8105 0.0689245 87.3226 0.0689245Z" fill="white"/>
<path d="M167.826 20.7648C167.826 14.5885 167.883 8.41218 167.785 2.24396C167.76 0.563928 168.161 -0.0447785 169.947 0.0363823C173.207 0.182472 176.483 0.16624 179.751 0.0363823C181.495 -0.0366624 181.987 0.523347 181.97 2.23584C181.88 10.0273 181.995 17.8268 181.889 25.6183C181.864 27.5742 182.347 28.1992 184.387 28.1342C189.383 27.98 194.395 28.1586 199.4 28.045C201.201 28.0044 201.963 28.3615 201.857 30.3418C201.685 33.572 201.709 36.8184 201.848 40.0568C201.922 41.7449 201.259 42.029 199.752 42.0209C189.841 41.964 179.939 41.9235 170.029 42.0452C167.957 42.0696 167.768 41.2823 167.793 39.5941C167.875 33.3123 167.826 27.0386 167.826 20.7648Z" fill="white"/>
</svg>
