<svg width="12" height="32" viewBox="0 0 212 232" fill="none" xmlns="http://www.w3.org/2000/svg">
<path d="M65.5717 211.414C75.4441 203.586 84.285 201.707 93.4391 209.737C102.096 217.326 109.997 215.871 119.594 210.032C142.341 196.163 165.824 183.491 189.161 170.635C194.042 167.946 196.104 164.87 196.068 159.16C195.81 130.335 195.81 101.51 196.068 72.6845C196.123 66.9563 194.042 63.9173 189.142 61.2097C163.669 47.1379 138.307 32.8451 113.092 18.3312C108.229 15.5316 104.435 15.5316 99.5725 18.3312C74.339 32.8451 48.995 47.1563 23.522 61.2466C18.6595 63.9357 16.523 66.9379 16.5782 72.7029C16.8545 101.528 16.8545 130.353 16.5782 159.178C16.523 164.925 18.4569 168.167 23.4852 170.598C29.8212 173.655 35.6783 177.707 42.0143 180.728C54.4653 186.659 62.6248 181.557 62.68 167.854C62.809 139.342 62.7905 110.811 62.68 82.299C62.6616 76.663 62.4405 72.4451 70.5263 72.5372C77.9306 72.6293 79.0726 75.5947 79.0173 81.8938C78.7779 111.032 79.091 140.152 78.8331 169.29C78.6121 194.229 61.6854 205.501 38.5516 195.776C28.4398 191.521 19.0095 185.609 9.46861 180.083C3.04051 176.363 0.719767 170.045 0.719767 162.88C0.682929 131.606 0.682929 100.312 0.719767 69.0376C0.719767 60.6572 4.3298 54.4501 11.7525 50.2875C39.5278 34.6869 67.2663 18.9943 94.9679 3.26476C102.593 -1.06362 109.997 -1.10045 117.623 3.22792C145.324 18.9574 173.063 34.6501 200.838 50.2507C208.611 54.6159 212 61.0808 211.981 69.8665C211.889 100.533 211.871 131.2 212 161.867C212.037 171.058 208.279 177.579 200.212 182.073C172.676 197.471 145.214 213.016 117.752 228.58C110.145 232.89 102.667 233.074 95.0967 228.653C85.4454 222.98 75.7572 217.344 65.5717 211.414Z" fill="#F8F9FE"/>
<path d="M132.744 164.685C123.093 164.114 113.331 163.47 104.196 159.307C95.2073 155.218 89.4608 148.514 87.6005 138.733C86.9927 135.528 85.7218 131.182 90.6764 130.703C94.8758 130.316 101.617 127.793 103.017 133.152C107.272 149.416 120.017 148.698 132.21 149.287C138.602 149.6 145.103 149.269 151.218 146.819C156.247 144.811 159.249 141.441 159.046 135.694C158.844 130.169 154.755 128.714 150.611 127.387C141.199 124.367 131.308 124.146 121.62 122.764C115.818 121.936 110.09 120.923 104.693 118.712C87.5636 111.695 84.7272 89.795 99.4068 78.4308C113.515 67.5085 148.382 67.3612 162.38 78.1729C166.635 81.4514 169.821 85.7245 171.11 90.8081C172.031 94.4365 176.194 100.017 170.374 101.804C165.401 103.333 157.978 105.635 155.418 96.5915C153.871 91.1212 149.616 87.9716 144.201 86.7744C134.826 84.6931 125.359 84.4352 116.02 86.9586C110.863 88.3584 107.179 91.6369 107.529 97.4572C107.861 102.909 112.41 104.088 116.683 104.88C129.024 107.164 141.475 108.84 153.742 111.492C169.895 114.992 176.415 121.954 176.71 134.626C176.986 147.298 169.545 156.728 155.565 161.315C148.216 163.746 140.591 164.335 132.744 164.685Z" fill="#F8F9FE"/>
</svg>
