<svg width="64" height="64" viewBox="0 0 264 264" fill="none" xmlns="http://www.w3.org/2000/svg">
<path d="M82.1005 68.786C96.2435 68.786 110.366 68.8466 124.509 68.7456C127.621 68.7254 131.702 69.8973 132.025 64.5835C132.389 58.5828 128.025 59.492 124.449 59.4718C108.285 59.4112 92.142 59.2294 75.9785 59.5527C70.2203 59.6739 68.1796 57.7342 68.5433 52.0366C68.9272 46.339 69.0686 40.5606 68.5029 34.8832C67.1088 20.8613 74.1197 12.0927 86.3232 7.78913C115.518 -2.49487 145.138 -2.6565 174.313 7.66791C189.042 12.8806 196.659 23.7506 195.992 40.2979C195.305 57.1079 196.013 73.9583 195.79 90.7683C195.487 114.63 182.678 127.399 158.655 127.682C138.471 127.924 118.266 127.641 98.0619 127.783C74.3016 127.944 61.2092 140.532 60.1787 164.252C59.8151 172.657 60.0979 181.082 60.0373 189.487C60.0171 192.82 60.3606 195.75 55.2691 196.538C28.5186 200.599 11.4055 190.052 4.35414 163.908C-1.34348 142.714 -1.60612 121.257 4.49559 100.103C10.7589 78.4437 24.1746 68.8062 46.7429 68.786C58.5422 68.786 70.3213 68.786 82.1005 68.786ZM95.9404 43.3488C102.668 42.8437 106.871 39.2473 107.073 32.6607C107.295 25.5285 102.951 21.0634 95.9202 21.0836C88.9295 21.1038 84.727 25.4477 84.9492 32.7415C85.1715 39.5908 89.3942 42.8235 95.9404 43.3488Z" fill="#FCFDFE"/>
<path d="M181.465 194.518C167.666 194.518 153.866 194.377 140.067 194.619C136.975 194.68 131.965 192.377 131.803 198.741C131.621 205.651 136.996 203.61 140.491 203.651C156.311 203.853 172.131 203.954 187.931 203.651C194.113 203.529 196.457 205.712 195.932 211.833C195.548 216.177 195.871 220.582 195.891 224.946C195.932 244.544 190.699 252.384 171.646 257.738C146.189 264.87 120.408 265.112 94.9908 257.475C74.8269 251.434 68.6241 242.261 68.6241 221.39C68.6241 204.903 68.5231 188.417 68.6645 171.93C68.8868 148.574 81.4337 136.007 105.032 135.724C123.54 135.501 142.047 135.683 160.554 135.663C192.093 135.623 204.175 123.379 204.195 91.4358C204.195 90.7691 204.094 90.0821 204.215 89.4154C205.508 82.1014 200.175 70.4233 206.802 68.1806C216.621 64.8873 228.784 64.7055 239.209 70.2819C249.998 76.0401 255.878 85.718 259.05 97.093C265.334 119.601 265.98 142.31 258.989 164.697C252.423 185.689 239.553 194.539 217.773 194.539C205.711 194.518 193.588 194.518 181.465 194.518ZM157.139 231.492C157.806 238.22 161.766 242.221 168.231 242.16C175.242 242.1 179.708 237.574 179.404 230.543C179.101 223.552 174.535 219.491 167.322 219.996C160.554 220.501 157.362 224.845 157.139 231.492Z" fill="#FCFDFE"/>
</svg>
