<svg width="274" height="206" viewBox="0 0 274 206" fill="none" xmlns="http://www.w3.org/2000/svg">
<path d="M81.3082 136.056C72.8678 138.745 69.2505 142.375 71.3482 153.067C76.2374 178.097 59.2906 201.015 34.812 205.173C27.1975 206.46 19.038 207.12 13.356 200.305C7.27765 193.012 7.87228 184.515 10.9445 176.1C13.9011 167.999 20.2933 162.686 26.7846 157.538C34.7294 151.252 43.7478 146.582 52.8984 141.303C47.1504 135.313 40.5765 131.799 34.6303 127.476C24.4061 120.002 14.1488 112.626 6.60045 102.165C-1.03054 91.5891 -2.12069 80.6664 3.72644 68.8856C8.07048 60.1408 13.6368 52.3035 20.8218 45.8356C48.0423 21.3502 79.3591 5.16403 116.061 0.610133C129.39 -1.03983 142.472 0.577135 154.711 6.43451C169.23 13.3974 175.358 26.1681 171.856 41.8592C167.694 60.5203 155.983 73.8355 139.978 83.0093C122.882 92.8101 104.119 96.7205 84.3474 93.8001C72.9009 92.1006 65.1873 85.5998 63.7668 75.733C77.5918 88.0582 92.7381 86.6393 108.248 82.5308C123.51 78.4884 136.905 71.1956 147.245 59.1508C154.529 50.637 161.235 41.0342 156.429 29.303C151.672 17.7368 139.961 17.7863 129.621 16.9118C121.66 16.2353 113.682 17.4893 105.919 19.4362C78.7315 26.2506 54.385 38.6583 34.2174 58.1774C14.9086 76.822 15.9823 95.6811 36.3646 112.907C44.3425 119.639 52.6341 126.024 60.4964 132.871C63.1722 135.198 65.1212 134.884 67.7475 133.284C78.0212 127.096 89.6659 123.037 97.6603 113.319C100.254 110.168 103.871 107.924 107.686 106.224C117.151 102 122.387 104.789 124.071 114.854C124.385 116.751 122.965 119.771 126.4 120.084C134.51 120.793 132.561 125.76 131.339 130.792C129.225 139.504 125.773 147.985 125.987 157.357C129.671 157.241 129.803 154.189 130.678 152.275C138.524 135.049 147.163 118.17 153.258 100.185C154.975 95.1036 161.83 92.3151 167.512 94.2291C173.822 96.3575 170.006 100.565 169.131 103.683C167.264 110.316 167.479 116.735 169.775 123.103C170.254 124.44 170.502 126.766 172.583 126.486C173.607 126.337 174.713 124.885 175.308 123.78C180.511 114.144 187.201 105.152 189.529 94.2126C190.801 88.2562 194.22 86.0783 199.836 85.8143C207.021 85.4843 208.739 87.3487 206.724 94.2621C204.329 102.495 204.643 110.399 208.227 118.335C210.176 122.625 212.043 123.763 216.882 121.965C230.542 116.9 244.416 116.603 257.663 123.499C267.26 128.499 273.536 136.171 273.982 147.49C274.329 156.532 269.539 162.554 260.356 165.079C259.761 164.369 259.662 163.726 260.438 163.016C271.604 152.621 270.729 141.616 257.647 133.647C245.655 126.337 232.557 126.684 219.294 129.39C215.396 130.182 214.355 132.294 215.594 135.874C220.516 150.113 204.61 161.696 192.123 164.105C186.755 165.145 183.286 160.525 184.492 154.337C185.912 147.077 189.81 140.989 195.178 136.155C199.076 132.657 199.985 129.654 197.441 124.902C195.311 120.942 194.27 116.405 192.403 111.125C187.134 119.738 182.493 127.393 177.786 135.016C176.068 137.805 177.637 140.296 178.314 142.887C182.724 159.799 165.48 177.123 148.418 172.833C142.786 171.414 143.232 167.669 145.891 164.089C150.317 158.132 154.992 152.357 159.914 146.813C163.25 143.035 163.911 139.735 161.367 135.082C158.89 130.578 157.618 125.43 155.438 119.54C150.268 130.495 145.627 140.791 140.589 150.889C137.285 157.505 133.685 164.023 129.704 170.259C127.391 173.889 124.336 177.915 119.1 176.43C113.93 174.962 113.666 170.111 113.187 165.706C113.021 164.105 113.021 162.472 112.84 158.792C109.602 164.897 107.339 169.434 104.845 173.84C102.582 177.833 99.5598 181.034 94.4724 180.753C89.3851 180.489 86.891 176.892 84.8263 172.8C78.9957 161.284 80.1189 149.387 82.7782 137.409C82.8278 136.765 82.8938 136.138 82.9434 135.495C82.4313 135.693 81.8698 135.874 81.3082 136.056ZM61.6196 156.334C61.4213 154.172 62.0655 150.179 59.687 148.678C56.9617 146.962 54.451 150.526 51.9569 151.912C49.0994 153.496 46.4567 155.492 43.8304 157.456C36.5298 162.884 29.4934 168.543 26.6524 177.734C25.4962 181.463 24.5713 185.39 27.7261 188.525C30.6661 191.428 34.366 190.372 37.8181 189.416C50.7677 185.786 61.4048 171.332 61.6196 156.334ZM94.8028 151.961C94.8028 152.786 94.6872 153.628 94.8193 154.42C95.3314 157.472 93.8943 162.026 97.908 162.818C101.377 163.511 102.17 159.155 103.309 156.581C108.215 145.576 112.592 134.356 115.78 122.724C116.424 120.381 117.712 117.213 115.532 115.844C112.906 114.194 110.296 116.685 108.43 118.616C99.4772 127.888 95.1827 139.158 94.8028 151.961ZM204.032 137.277C197.97 142.161 194.931 147.473 193.708 155.608C202.446 151.351 206.08 146.368 204.032 137.277Z" fill="#F8F9FE"/>
</svg>
