<svg width="15" height="9" viewBox="0 0 93 49" fill="none" xmlns="http://www.w3.org/2000/svg">
<g clip-path="url(#clip0_447_91)">
<path d="M5.9555 0C32.9852 0 60.0134 0 87.0431 0C87.8384 0.402539 88.8699 0.533435 89.6484 0.958494C91.935 2.20834 93.0042 3.79316 93.0014 5.72985C92.9832 18.148 92.9916 30.5648 92.9916 42.983C92.9916 43.1646 92.979 43.3447 92.9678 43.5263C92.8784 44.9197 92.0859 46.1344 90.6058 47.1323C88.6029 48.4849 86.0773 49.0014 83.2121 49C63.14 48.9887 43.068 48.9944 22.996 48.9944C18.4689 48.9944 13.9418 48.9761 9.41615 48.9972C4.12175 49.0225 0.0279551 46.3427 0.0195691 42.8212C-0.0111798 30.4945 0.0125807 18.1663 1.58364e-06 5.83963C-0.00139609 4.25903 0.922468 2.92052 2.38024 1.70446C3.31948 0.920492 4.66964 0.48558 5.9555 0ZM46.579 43.2153C58.6158 43.2153 70.6511 43.2082 82.6879 43.2293C83.588 43.2307 83.8578 43.1181 83.8564 42.496C83.8228 30.3959 83.8228 18.2958 83.8564 6.19573C83.8578 5.57221 83.5852 5.46243 82.6865 5.46243C58.6144 5.47932 34.5422 5.47791 10.47 5.46384C9.61881 5.46384 9.35744 5.58629 9.35884 6.16195C9.3854 18.2846 9.3854 30.4072 9.35884 42.5298C9.35744 43.1069 9.62161 43.2293 10.4714 43.2279C22.5068 43.2096 34.5422 43.2153 46.579 43.2153Z" fill="white"/>
<path d="M55.3493 24.345C55.3493 27.5175 55.2976 30.6899 55.3982 33.8624C55.4164 34.4113 54.8518 34.5253 53.0194 34.5225C40.4082 34.5 27.7941 34.5028 15.1829 34.5211C13.5518 34.5239 13.0249 34.4155 13.0305 33.9285C13.0878 27.5386 13.0892 21.1486 13.0291 14.7587C13.0249 14.2661 13.5798 14.1675 15.1941 14.1689C27.8864 14.1872 40.5787 14.1886 53.271 14.1675C54.9314 14.1647 55.401 14.2801 55.3899 14.7615C55.3116 17.9551 55.3493 21.15 55.3493 24.345Z" fill="white"/>
<path d="M70.127 37.3995C67.8111 37.3995 65.4937 37.3841 63.1778 37.4122C62.6928 37.4178 62.5908 37.2701 62.5936 36.8056C62.6131 33.3404 62.6117 29.8766 62.595 26.4113C62.5922 25.9567 62.683 25.7921 63.1764 25.7935C67.8097 25.8132 72.4416 25.8089 77.0749 25.7977C77.4411 25.7963 77.5739 25.8667 77.5725 26.2706C77.5557 29.8259 77.5557 33.3812 77.5725 36.9365C77.5739 37.3418 77.4383 37.4094 77.0763 37.408C74.7603 37.3925 72.4444 37.3995 70.127 37.3995Z" fill="white"/>
<path d="M70.3505 19.992C68.0556 19.992 65.762 19.9793 63.467 20.0032C63.0281 20.0075 62.9107 19.8949 62.9149 19.4487C62.9373 16.9124 62.9359 14.3747 62.9163 11.8385C62.9135 11.4064 63.0099 11.2755 63.4614 11.2769C68.0723 11.2952 72.6833 11.2952 77.2942 11.2783C77.7526 11.2769 77.9022 11.3768 77.8966 11.8666C77.87 14.3804 77.8714 16.8941 77.8966 19.4079C77.9008 19.8864 77.7722 20.0089 77.3012 20.0032C74.9838 19.9779 72.6665 19.992 70.3505 19.992Z" fill="white"/>
</g>
<defs>
<clipPath id="clip0_447_91">
<rect width="93" height="49" fill="white"/>
</clipPath>
</defs>
</svg>
