<svg width="32" height="26" viewBox="0 0 32 26" fill="none" xmlns="http://www.w3.org/2000/svg">
<path d="M9.63811 20.3051C6.4914 19.9621 4.04147 18.1359 3.54117 15.8154C4.49717 15.9432 5.44342 15.9418 6.46074 15.6516C5.2957 15.3794 4.32158 14.9128 3.48125 14.1893C2.06258 12.9644 1.31144 11.4146 1.20692 9.54823C1.19159 9.27744 1.26127 9.23856 1.50236 9.35382C2.23956 9.70516 3.01719 9.91624 3.83522 9.97595C3.89933 9.98012 3.96204 9.98567 4.02614 9.98706C4.04147 9.98706 4.05819 9.96901 4.09443 9.9454C3.82825 9.71627 3.56347 9.49685 3.30845 9.26494C1.19019 7.33326 0.632759 4.01289 1.98733 1.48408C2.11414 1.24661 2.17964 1.35632 2.28416 1.4813C3.87145 3.3852 5.78764 4.88638 7.97557 6.04039C9.65902 6.92776 11.454 7.50268 13.3283 7.83597C13.9875 7.95262 14.6522 8.01372 15.3156 8.09427C15.6403 8.13454 15.6556 7.99151 15.611 7.74015C15.3713 6.41811 15.5079 5.13218 16.0793 3.91707C17.0743 1.79792 18.755 0.505045 21.0613 0.132875C23.1754 -0.207356 25.0275 0.45783 26.5911 1.90485C26.7709 2.07149 26.9172 2.10482 27.1541 2.05344C28.3484 1.79376 29.4744 1.3577 30.5545 0.795283C30.6436 0.749456 30.744 0.623084 30.8346 0.703629C30.9419 0.799449 30.8192 0.923043 30.7788 1.02025C30.266 2.23814 29.4633 3.21995 28.3554 3.9504C28.2982 3.98789 28.2132 4.00456 28.1881 4.13787C29.4006 3.99484 30.5545 3.69766 31.6665 3.22272C31.7362 3.37409 31.6233 3.43936 31.5676 3.51435C30.7719 4.57392 29.8786 5.54185 28.7874 6.30979C28.6229 6.42506 28.5658 6.55837 28.5686 6.7639C28.6411 11.7021 27.0663 16.0626 23.8471 19.8038C21.138 22.9519 17.6749 24.8461 13.5973 25.6224C12.2358 25.8821 10.8533 25.9973 9.46531 25.9473C6.13046 25.8251 3.02694 24.9155 0.171482 23.1838C0.13943 23.1644 0.110165 23.1408 0.00146484 23.0644C1.78944 23.2255 3.46313 23.1033 5.10757 22.6353C6.74642 22.1673 8.22223 21.3924 9.63811 20.3051Z" fill="#B2B2B2"/>
</svg>
