<svg width="31" height="30" viewBox="0 0 31 30" fill="none" xmlns="http://www.w3.org/2000/svg">
<path d="M15.0273 30C6.63094 29.9264 -0.0234355 23.2815 -0.00949964 14.9826C0.00582981 6.61436 6.67693 0.00694889 15.0315 5.41402e-06C23.4014 -0.00693807 30.0516 6.66575 30.0906 14.9896C30.1282 23.2176 23.2913 30.0097 15.0273 30ZM15.0384 13.9633C16.4613 13.9633 17.8841 13.9592 19.307 13.9675C19.5216 13.9689 19.5997 13.9231 19.5885 13.6884C19.5091 12.0706 19.3474 10.4638 19.0199 8.87377C18.9753 8.65297 18.914 8.61131 18.6938 8.65852C16.2648 9.16956 13.8316 9.16401 11.404 8.66408C11.135 8.60853 11.089 8.68352 11.043 8.91127C10.7239 10.4902 10.5609 12.0858 10.4828 13.6939C10.4717 13.937 10.565 13.9675 10.7713 13.9661C12.1927 13.9592 13.6156 13.962 15.0384 13.9633ZM15.0384 16.0228C13.6156 16.0228 12.1927 16.0256 10.7699 16.0186C10.5636 16.0172 10.4717 16.0492 10.4828 16.2922C10.5595 17.8989 10.7239 19.4945 11.0416 21.0735C11.0876 21.3026 11.135 21.3748 11.4026 21.3207C13.8316 20.8235 16.2648 20.8193 18.6938 21.3262C18.9154 21.372 18.9739 21.3318 19.0199 21.1124C19.346 19.5223 19.5077 17.9156 19.5885 16.2977C19.5997 16.0631 19.5188 16.0172 19.307 16.0186C17.8841 16.0256 16.4613 16.0228 15.0384 16.0228ZM5.25965 13.9633C6.21147 13.9633 7.16329 13.9564 8.11511 13.9675C8.33948 13.9703 8.4217 13.9189 8.43006 13.6759C8.4858 11.8678 8.69205 10.0764 9.06693 8.3058C9.11849 8.05861 9.04463 8.00723 8.84535 7.93501C7.74999 7.53785 6.70201 7.04208 5.7279 6.40051C5.51468 6.26025 5.41852 6.29496 5.26662 6.47133C3.49119 8.54465 2.4251 10.9235 2.1199 13.6398C2.08645 13.9356 2.18958 13.9689 2.43903 13.9661C3.37831 13.9564 4.31898 13.9633 5.25965 13.9633ZM5.28055 16.0228C4.32734 16.0228 3.37552 16.0325 2.42231 16.0158C2.14081 16.0103 2.07391 16.0978 2.12548 16.3588C2.18819 16.6755 2.21048 17.0004 2.26901 17.3198C2.70103 19.6667 3.72531 21.7275 5.28752 23.5287C5.39622 23.6537 5.47705 23.7481 5.66658 23.6203C6.67414 22.9454 7.76532 22.4344 8.90527 22.0233C9.08086 21.9595 9.10734 21.8942 9.06832 21.7081C8.69902 19.9347 8.4872 18.1419 8.42867 16.3311C8.42031 16.0853 8.35899 16.0089 8.10396 16.0131C7.16329 16.0325 6.22122 16.0228 5.28055 16.0228ZM24.8256 16.0228C23.8612 16.0228 22.8983 16.0297 21.9339 16.0172C21.7095 16.0144 21.651 16.0825 21.644 16.2991C21.5855 18.1086 21.3793 19.9028 21.0086 21.6762C20.9654 21.8859 20.9974 21.9622 21.1995 22.0344C22.3297 22.4399 23.4069 22.9552 24.4075 23.6189C24.5692 23.7259 24.65 23.6884 24.7629 23.5565C26.569 21.472 27.649 19.0724 27.9514 16.3283C27.9821 16.0547 27.8901 16.0144 27.649 16.0172C26.7083 16.0297 25.7663 16.0228 24.8256 16.0228ZM24.8075 13.962C25.7593 13.962 26.7125 13.9564 27.6643 13.9661C27.8887 13.9689 27.9807 13.9272 27.9528 13.6731C27.6518 10.9179 26.5662 8.50993 24.7503 6.41995C24.6277 6.2783 24.5427 6.27691 24.3936 6.37551C23.4 7.02958 22.3311 7.53924 21.2148 7.94473C21.0267 8.01278 20.9598 8.06555 21.0072 8.2933C21.3765 10.0653 21.5869 11.8581 21.644 13.6676C21.651 13.8981 21.7165 13.9703 21.952 13.9661C22.9025 13.955 23.8557 13.962 24.8075 13.962ZM15.0816 27.9156C15.1471 27.9072 15.2712 27.9045 15.3882 27.8725C15.9457 27.7198 16.3428 27.3434 16.6871 26.9102C17.4814 25.9103 17.9552 24.7493 18.3733 23.5592C18.4611 23.3093 18.2646 23.3357 18.1434 23.3134C17.2974 23.1551 16.446 23.0496 15.5833 23.0232C14.3375 22.9857 13.1055 23.0885 11.8806 23.3162C11.7147 23.3468 11.62 23.3954 11.7092 23.6023C11.8499 23.9272 11.9433 24.273 12.0826 24.598C12.491 25.5534 12.9369 26.4894 13.6811 27.2407C14.0504 27.6128 14.4643 27.9128 15.0816 27.9156ZM15.0482 6.96432C16.092 6.98376 17.1344 6.86433 18.1684 6.67269C18.3412 6.64075 18.4388 6.60881 18.3566 6.37412C18.0556 5.51174 17.71 4.67019 17.2459 3.8828C16.9156 3.32177 16.5393 2.79406 16 2.40939C15.3534 1.94835 14.7193 1.94835 14.0713 2.408C13.7954 2.60381 13.5626 2.84405 13.355 3.1093C12.5816 4.09666 12.1189 5.23817 11.7022 6.40328C11.6186 6.63658 11.7677 6.64492 11.9071 6.66991C12.9411 6.86016 13.9821 6.98515 15.0482 6.96432ZM11.096 27.3157C11.0612 27.2171 11.0528 27.174 11.0319 27.1379C10.4814 26.2047 10.0689 25.209 9.73167 24.1828C9.66338 23.9772 9.58813 23.9564 9.40418 24.0286C8.66418 24.3202 7.94648 24.6549 7.25805 25.0535C7.10058 25.1451 7.05738 25.1937 7.22879 25.3215C8.39104 26.1839 9.65363 26.8491 11.096 27.3157ZM11.1364 2.65519C9.64806 3.13429 8.3785 3.80781 7.21067 4.67852C7.09779 4.76323 7.0518 4.81739 7.21346 4.90905C7.93394 5.3201 8.67812 5.67977 9.45435 5.9714C9.58674 6.02139 9.66199 6.02 9.70798 5.87697C10.0522 4.78129 10.5093 3.73421 11.1364 2.65519ZM19.0339 27.2976C20.4302 26.8491 21.7081 26.1686 22.8829 25.2909C23.0544 25.1632 22.9234 25.1215 22.8272 25.066C22.1416 24.6619 21.4225 24.33 20.6825 24.0342C20.4804 23.9536 20.4079 23.9745 20.3341 24.1994C20.0052 25.2048 19.5969 26.1797 19.0645 27.0976C19.0339 27.1518 18.9739 27.2018 19.0339 27.2976ZM19.0241 2.68991C19.0157 2.73574 19.0018 2.76073 19.0088 2.77462C19.5676 3.76476 20.0261 4.79795 20.3647 5.88391C20.4093 6.02833 20.4888 6.02 20.6198 5.9714C21.3848 5.68394 22.1165 5.32704 22.8286 4.9271C23.0376 4.80906 22.9526 4.74518 22.8244 4.65769C22.4913 4.43272 22.1666 4.19526 21.8252 3.98417C20.9459 3.43703 20.0177 2.9982 19.0241 2.68991Z" fill="#B2B2B2"/>
</svg>
