<svg width="30" height="29" viewBox="0 0 30 29" fill="none" xmlns="http://www.w3.org/2000/svg">
<path d="M0.510031 14.5546C0.510031 10.3163 0.523966 6.07804 0.500275 1.83974C0.494701 0.780162 1.24167 0.117754 2.22693 0.119143C10.764 0.137196 19.3012 0.128864 27.8383 0.130252C28.6187 0.130252 29.1886 0.534363 29.4033 1.23149C29.4674 1.4384 29.4841 1.65365 29.4841 1.87029C29.4827 10.3261 29.4841 18.7832 29.4813 27.239C29.4813 28.1305 29.1009 28.6916 28.3636 28.9179C28.1448 28.986 27.9177 28.9957 27.6919 28.9957C25.4204 28.9971 23.1502 28.9915 20.8787 28.9999C20.6083 29.0012 20.5289 28.9263 20.5289 28.6527C20.5373 25.1546 20.5359 21.6578 20.5289 18.1597C20.5289 17.9139 20.5986 17.8445 20.8439 17.8486C21.9169 17.8625 22.9914 17.8514 24.0644 17.8611C24.2679 17.8625 24.3459 17.8153 24.3724 17.5987C24.5285 16.2919 24.6957 14.9865 24.8755 13.6825C24.9076 13.4451 24.8379 13.4048 24.6233 13.4076C23.3746 13.4187 22.1246 13.4117 20.8759 13.4284C20.6167 13.4312 20.5136 13.384 20.5261 13.0965C20.5651 12.1105 20.4927 11.1218 20.5763 10.1358C20.6446 9.32481 21.064 8.82904 21.8556 8.6499C22.1399 8.58602 22.4284 8.57214 22.7168 8.57214C23.3983 8.57214 24.0798 8.57075 24.7612 8.58047C24.948 8.58324 25.0427 8.54714 25.0399 8.32911C25.0274 7.16677 25.0246 6.00444 25.026 4.8421C25.026 4.67545 24.9717 4.59352 24.803 4.5838C23.3021 4.50326 21.8012 4.30884 20.299 4.56714C18.0107 4.96014 16.4192 6.57936 16.0597 8.8707C15.9858 9.3387 15.9482 9.80946 15.9482 10.2844C15.9496 11.2204 15.944 12.1564 15.9579 13.0923C15.9621 13.3354 15.9203 13.4326 15.6444 13.427C14.5922 13.409 13.5387 13.4284 12.4865 13.4117C12.2357 13.4076 12.173 13.4826 12.1757 13.7242C12.1869 15.0004 12.1855 16.2752 12.1757 17.5514C12.1744 17.7875 12.2287 17.8667 12.4809 17.8639C13.5331 17.8486 14.5866 17.8639 15.6402 17.8528C15.8715 17.85 15.9579 17.8917 15.9579 18.1527C15.9482 21.6092 15.9524 25.0657 15.9538 28.5221C15.9538 28.9971 15.9579 28.9971 15.4897 28.9971C11.2267 28.9957 6.96373 28.9957 2.69936 28.9929C2.44155 28.9929 2.18234 28.9887 1.92592 28.9679C1.10788 28.8999 0.518397 28.275 0.514216 27.457C0.505855 26.0989 0.511426 24.7407 0.511426 23.3826C0.511426 20.4399 0.511426 17.4987 0.511426 14.556C0.511426 14.5546 0.510031 14.5546 0.510031 14.5546Z" fill="#B2B2B2"/>
</svg>
