<svg width="29" height="29" viewBox="0 0 29 29" fill="none" xmlns="http://www.w3.org/2000/svg">
<path d="M29.0001 8.5013C29.0001 12.466 29.0001 16.4308 29.0001 20.3969C28.9221 20.4219 28.9457 20.4885 28.9444 20.5399C28.9151 21.2981 28.8273 22.048 28.6517 22.7854C27.803 26.3613 25.1928 28.3124 21.9402 28.7707C21.0525 28.8957 20.1578 28.9332 19.2617 28.9443C19.2032 28.9457 19.1224 28.904 19.0903 28.9998C16.193 28.9998 13.2958 28.9998 10.3985 28.9998C10.3665 28.9068 10.2856 28.9443 10.2271 28.9457C9.377 28.9512 8.5297 28.911 7.68379 28.8304C6.49645 28.7179 5.35373 28.4333 4.30018 27.8708C1.77082 26.5196 0.589056 24.2991 0.258776 21.5467C0.123598 20.4191 0.115237 19.2818 0.102695 18.1486C0.0692487 15.1865 0.0469438 12.223 0.147282 9.26092C0.183515 8.17913 0.258771 7.09733 0.550031 6.0447C1.17714 3.78252 2.50104 2.09108 4.65414 1.08289C6.13273 0.389932 7.71865 0.234398 9.31988 0.188571C11.8771 0.116359 14.4357 0.0996944 16.993 0.138578C18.7558 0.166352 20.5257 0.117747 22.2733 0.416317C23.8522 0.685724 25.2723 1.29814 26.454 2.40771C27.9925 3.85195 28.6698 5.68364 28.8914 7.72641C28.9193 7.9861 28.8872 8.25412 29.0001 8.5013ZM14.5542 26.403C15.761 26.403 16.9693 26.4169 18.1761 26.3988C19.4206 26.3808 20.665 26.3697 21.8998 26.178C24.1211 25.8322 25.7238 24.3074 26.1697 22.1161C26.4261 20.8538 26.4275 19.5734 26.4415 18.2972C26.468 15.8142 26.468 13.3312 26.4401 10.8496C26.4261 9.56366 26.4429 8.26939 26.1614 7.0029C25.714 4.98235 24.5114 3.66309 22.4893 3.11316C21.5305 2.85209 20.5466 2.81876 19.5641 2.7896C16.7742 2.70905 13.9828 2.71044 11.1928 2.75627C9.82435 2.77849 8.44887 2.74099 7.0971 3.01457C4.94679 3.45201 3.55182 4.69906 3.02504 6.85431C2.77001 7.9 2.76164 8.96791 2.73656 10.0344C2.65712 13.402 2.65852 16.7696 2.76026 20.1358C2.77977 20.7982 2.83273 21.4606 2.97487 22.1105C3.39574 24.0297 4.4883 25.3601 6.39472 25.9697C7.20997 26.2308 8.05449 26.3044 8.90457 26.3447C10.7887 26.4335 12.6714 26.3974 14.5542 26.403Z" fill="#B2B2B2"/>
<path d="M7.14313 14.5503C7.12362 10.4967 10.5086 7.13881 14.5988 7.16519C18.6862 7.19158 21.9974 10.5008 21.9904 14.5822C21.9834 18.6761 18.6444 21.9701 14.5361 21.9687C10.5003 21.9659 7.10551 18.6233 7.14313 14.5503ZM19.4067 14.5683C19.4123 11.9076 17.2564 9.75233 14.5779 9.744C11.9078 9.73567 9.74496 11.8757 9.72127 14.5489C9.69758 17.1846 11.8827 19.3802 14.5445 19.3941C17.223 19.4079 19.3997 17.2471 19.4067 14.5683Z" fill="#B2B2B2"/>
<path d="M24.0208 6.84854C24.0222 7.80813 23.2696 8.56358 22.3067 8.56636C21.3451 8.56913 20.5856 7.80813 20.5884 6.84437C20.5912 5.90284 21.3493 5.14739 22.2927 5.146C23.2571 5.14461 24.018 5.89589 24.0208 6.84854Z" fill="#B2B2B2"/>
</svg>
